<svg width="1020" height="2096" viewBox="0 0 1020 2096" fill="none" xmlns="http://www.w3.org/2000/svg">
<g clip-path="url(#clip0)">
<path d="M50.3708 80.9523C46.773 80.9523 43.175 84.5502 43.175 88.1481C43.175 91.746 46.773 95.3439 50.3708 95.3439C53.9687 95.3439 57.5665 91.746 57.5665 88.1481C57.5665 83.6508 53.9687 80.9523 50.3708 80.9523Z" fill="#D08C84"/>
<path d="M130.423 80.9523C126.825 80.9523 123.227 84.5502 123.227 88.1481C123.227 91.746 126.825 95.3439 130.423 95.3439C134.021 95.3439 137.619 91.746 137.619 88.1481C137.619 83.6508 134.021 80.9523 130.423 80.9523Z" fill="#D08C84"/>
<path d="M210.476 80.9523C206.878 80.9523 203.28 84.5502 203.28 88.1481C203.28 91.746 206.878 95.3439 210.476 95.3439C214.074 95.3439 217.672 91.746 217.672 88.1481C217.672 83.6508 214.074 80.9523 210.476 80.9523Z" fill="#D08C84"/>
<path d="M290.529 80.9523C286.931 80.9523 283.333 84.5502 283.333 88.1481C283.333 91.746 286.931 95.3439 290.529 95.3439C294.127 95.3439 297.725 91.746 297.725 88.1481C297.725 83.6508 295.026 80.9523 290.529 80.9523Z" fill="#D08C84"/>
<path d="M370.582 80.9523C366.984 80.9523 363.386 84.5502 363.386 88.1481C363.386 91.746 366.984 95.3439 370.582 95.3439C374.18 95.3439 377.778 91.746 377.778 88.1481C377.778 83.6508 375.079 80.9523 370.582 80.9523Z" fill="#D08C84"/>
<path d="M451.534 80.9523C447.937 80.9523 444.339 84.5502 444.339 88.1481C444.339 91.746 447.937 95.3439 451.534 95.3439C455.132 95.3439 458.73 91.746 458.73 88.1481C457.831 83.6508 455.132 80.9523 451.534 80.9523Z" fill="#D08C84"/>
<path d="M531.588 80.9523C527.99 80.9523 524.392 84.5502 524.392 88.1481C524.392 91.746 527.99 95.3439 531.588 95.3439C535.186 95.3439 538.783 91.746 538.783 88.1481C538.783 83.6508 535.186 80.9523 531.588 80.9523Z" fill="#D08C84"/>
<path d="M7.19579 14.3916C11.1699 14.3916 14.3916 11.1699 14.3916 7.19579C14.3916 3.22168 11.1699 0 7.19579 0C3.22168 0 0 3.22168 0 7.19579C0 11.1699 3.22168 14.3916 7.19579 14.3916Z" fill="#D08C84"/>
<path d="M87.249 0C83.6511 0 80.0532 3.59791 80.0532 7.19579C80.0532 10.7937 83.6511 14.3916 87.249 14.3916C90.8469 14.3916 94.4448 10.7937 94.4448 7.19579C94.4448 3.59791 90.8469 0 87.249 0Z" fill="#D08C84"/>
<path d="M167.302 0C163.704 0 160.106 3.59791 160.106 7.19579C160.106 10.7937 163.704 14.3916 167.302 14.3916C170.9 14.3916 174.498 10.7937 174.498 7.19579C174.498 3.59791 171.799 0 167.302 0Z" fill="#D08C84"/>
<path d="M247.354 0C243.756 0 240.158 3.59791 240.158 7.19579C240.158 10.7937 243.756 14.3916 247.354 14.3916C250.952 14.3916 254.55 10.7937 254.55 7.19579C254.55 3.59791 251.851 0 247.354 0Z" fill="#D08C84"/>
<path d="M328.306 0C324.708 0 321.11 3.59791 321.11 7.19579C321.11 10.7937 324.708 14.3916 328.306 14.3916C331.904 14.3916 335.502 10.7937 335.502 7.19579C334.603 3.59791 331.904 0 328.306 0Z" fill="#D08C84"/>
<path d="M408.359 14.3916C412.333 14.3916 415.555 11.1699 415.555 7.19579C415.555 3.22168 412.333 0 408.359 0C404.385 0 401.164 3.22168 401.164 7.19579C401.164 11.1699 404.385 14.3916 408.359 14.3916Z" fill="#D08C84"/>
<path d="M488.413 14.3916C492.387 14.3916 495.608 11.1699 495.608 7.19579C495.608 3.22168 492.387 0 488.413 0C484.438 0 481.217 3.22168 481.217 7.19579C481.217 11.1699 484.438 14.3916 488.413 14.3916Z" fill="#D08C84"/>
<path d="M7.19579 161.005C3.59791 161.005 0 164.603 0 168.201C0 171.799 3.59791 175.397 7.19579 175.397C10.7937 175.397 14.3916 171.799 14.3916 168.201C14.3916 163.704 10.7937 161.005 7.19579 161.005Z" fill="#D08C84"/>
<path d="M87.249 161.005C83.6511 161.005 80.0532 164.603 80.0532 168.201C80.0532 171.799 83.6511 175.397 87.249 175.397C90.8469 175.397 94.4448 171.799 94.4448 168.201C94.4448 163.704 90.8469 161.005 87.249 161.005Z" fill="#D08C84"/>
<path d="M167.302 161.005C163.704 161.005 160.106 164.603 160.106 168.201C160.106 171.799 163.704 175.397 167.302 175.397C170.9 175.397 174.498 171.799 174.498 168.201C174.498 163.704 171.799 161.005 167.302 161.005Z" fill="#D08C84"/>
<path d="M247.354 161.005C243.756 161.005 240.158 164.603 240.158 168.201C240.158 171.799 243.756 175.397 247.354 175.397C250.952 175.397 254.55 171.799 254.55 168.201C254.55 163.704 251.851 161.005 247.354 161.005Z" fill="#D08C84"/>
<path d="M328.306 161.005C324.708 161.005 321.11 164.603 321.11 168.201C321.11 171.799 324.708 175.397 328.306 175.397C331.904 175.397 335.502 171.799 335.502 168.201C334.603 163.704 331.904 161.005 328.306 161.005Z" fill="#D08C84"/>
<path d="M408.359 161.005C404.761 161.005 401.164 164.603 401.164 168.201C401.164 171.799 404.761 175.397 408.359 175.397C411.957 175.397 415.555 171.799 415.555 168.201C415.555 163.704 411.957 161.005 408.359 161.005Z" fill="#D08C84"/>
<path d="M488.413 161.005C484.815 161.005 481.217 164.603 481.217 168.201C481.217 171.799 484.815 175.397 488.413 175.397C492.01 175.397 495.608 171.799 495.608 168.201C495.608 163.704 492.01 161.005 488.413 161.005Z" fill="#D08C84"/>
<path d="M7.19579 322.01C3.59791 322.01 0 325.608 0 329.206C0 332.804 3.59791 336.402 7.19579 336.402C10.7937 336.402 14.3916 332.804 14.3916 329.206C14.3916 325.608 10.7937 322.01 7.19579 322.01Z" fill="#D08C84"/>
<path d="M87.249 322.01C83.6511 322.01 80.0532 325.608 80.0532 329.206C80.0532 332.804 83.6511 336.402 87.249 336.402C90.8469 336.402 94.4448 332.804 94.4448 329.206C94.4448 325.608 90.8469 322.01 87.249 322.01Z" fill="#D08C84"/>
<path d="M167.302 322.01C163.704 322.01 160.106 325.608 160.106 329.206C160.106 332.804 163.704 336.402 167.302 336.402C170.9 336.402 174.498 332.804 174.498 329.206C174.498 325.608 171.799 322.01 167.302 322.01Z" fill="#D08C84"/>
<path d="M247.354 322.01C243.756 322.01 240.158 325.608 240.158 329.206C240.158 332.804 243.756 336.402 247.354 336.402C250.952 336.402 254.55 332.804 254.55 329.206C254.55 325.608 251.851 322.01 247.354 322.01Z" fill="#D08C84"/>
<path d="M328.306 322.01C324.708 322.01 321.11 325.608 321.11 329.206C321.11 332.804 324.708 336.402 328.306 336.402C331.904 336.402 335.502 332.804 335.502 329.206C335.502 325.608 331.904 322.01 328.306 322.01Z" fill="#D08C84"/>
<path d="M408.359 322.01C404.761 322.01 401.164 325.608 401.164 329.206C401.164 332.804 404.761 336.402 408.359 336.402C411.957 336.402 415.555 332.804 415.555 329.206C415.555 325.608 411.957 322.01 408.359 322.01Z" fill="#D08C84"/>
<path d="M488.413 322.01C484.815 322.01 481.217 325.608 481.217 329.206C481.217 332.804 484.815 336.402 488.413 336.402C492.01 336.402 495.608 332.804 495.608 329.206C495.608 325.608 492.01 322.01 488.413 322.01Z" fill="#D08C84"/>
<path d="M7.19579 482.116C3.59791 482.116 0 485.714 0 489.312V490.211V491.111C0 494.709 3.59791 498.307 7.19579 498.307C10.7937 498.307 14.3916 494.709 14.3916 491.111V490.211V489.312C14.3916 485.714 10.7937 482.116 7.19579 482.116Z" fill="#D08C84"/>
<path d="M87.249 482.116C83.6511 482.116 80.0532 485.714 80.0532 489.312V490.211V491.111C80.0532 494.709 83.6511 498.307 87.249 498.307C90.8469 498.307 94.4448 494.709 94.4448 491.111V490.211V489.312C94.4448 485.714 90.8469 482.116 87.249 482.116Z" fill="#D08C84"/>
<path d="M167.302 482.116C163.704 482.116 160.106 485.714 160.106 489.312V490.211V491.111C160.106 494.709 163.704 498.307 167.302 498.307C170.9 498.307 174.498 494.709 174.498 491.111V490.211V489.312C174.498 485.714 171.799 482.116 167.302 482.116Z" fill="#D08C84"/>
<path d="M247.354 482.116C243.756 482.116 240.158 485.714 240.158 489.312V490.211V491.111C240.158 494.709 243.756 498.307 247.354 498.307C250.952 498.307 254.55 494.709 254.55 491.111V490.211V489.312C254.55 485.714 251.851 482.116 247.354 482.116Z" fill="#D08C84"/>
<path d="M328.306 482.116C324.708 482.116 321.11 485.714 321.11 489.312V490.211V491.111C321.11 494.709 324.708 498.307 328.306 498.307C331.904 498.307 335.502 494.709 335.502 491.111V490.211V489.312C334.603 485.714 331.904 482.116 328.306 482.116Z" fill="#D08C84"/>
<path d="M408.359 482.116C404.761 482.116 401.164 485.714 401.164 489.312V490.211V491.111C401.164 494.709 404.761 498.307 408.359 498.307C411.957 498.307 415.555 494.709 415.555 491.111V490.211V489.312C415.555 485.714 411.957 482.116 408.359 482.116Z" fill="#D08C84"/>
<path d="M488.413 482.116C484.815 482.116 481.217 485.714 481.217 489.312V490.211V491.111C481.217 494.709 484.815 498.307 488.413 498.307C492.01 498.307 495.608 494.709 495.608 491.111V490.211V489.312C495.608 485.714 492.01 482.116 488.413 482.116Z" fill="#D08C84"/>
<path d="M50.3708 241.058C46.773 241.058 43.175 244.656 43.175 248.254C43.175 251.852 46.773 255.45 50.3708 255.45C53.9687 255.45 57.5665 251.852 57.5665 248.254C57.5665 244.656 53.9687 241.058 50.3708 241.058Z" fill="#D08C84"/>
<path d="M130.423 241.058C126.825 241.058 123.227 244.656 123.227 248.254C123.227 251.852 126.825 255.45 130.423 255.45C134.021 255.45 137.619 251.852 137.619 248.254C137.619 244.656 134.021 241.058 130.423 241.058Z" fill="#D08C84"/>
<path d="M210.476 241.058C206.878 241.058 203.28 244.656 203.28 248.254C203.28 251.852 206.878 255.45 210.476 255.45C214.074 255.45 217.672 251.852 217.672 248.254C217.672 244.656 214.074 241.058 210.476 241.058Z" fill="#D08C84"/>
<path d="M290.529 241.058C286.931 241.058 283.333 244.656 283.333 248.254C283.333 251.852 286.931 255.45 290.529 255.45C294.127 255.45 297.725 251.852 297.725 248.254C297.725 244.656 295.026 241.058 290.529 241.058Z" fill="#D08C84"/>
<path d="M370.582 241.058C366.984 241.058 363.386 244.656 363.386 248.254C363.386 251.852 366.984 255.45 370.582 255.45C374.18 255.45 377.778 251.852 377.778 248.254C377.778 244.656 375.079 241.058 370.582 241.058Z" fill="#D08C84"/>
<path d="M451.534 241.058C447.937 241.058 444.339 244.656 444.339 248.254C444.339 251.852 447.937 255.45 451.534 255.45C455.132 255.45 458.73 251.852 458.73 248.254C457.831 244.656 455.132 241.058 451.534 241.058Z" fill="#D08C84"/>
<path d="M531.588 241.058C527.99 241.058 524.392 244.656 524.392 248.254C524.392 251.852 527.99 255.45 531.588 255.45C535.186 255.45 538.783 251.852 538.783 248.254C538.783 244.656 535.186 241.058 531.588 241.058Z" fill="#D08C84"/>
<path d="M50.3708 402.063C46.773 402.063 43.175 405.661 43.175 409.259C43.175 412.857 46.773 416.455 50.3708 416.455C53.9687 416.455 57.5665 412.857 57.5665 409.259C57.5665 404.762 53.9687 402.063 50.3708 402.063Z" fill="#D08C84"/>
<path d="M130.423 402.063C126.825 402.063 123.227 405.661 123.227 409.259C123.227 412.857 126.825 416.455 130.423 416.455C134.021 416.455 137.619 412.857 137.619 409.259C137.619 404.762 134.021 402.063 130.423 402.063Z" fill="#D08C84"/>
<path d="M210.476 402.063C206.878 402.063 203.28 405.661 203.28 409.259C203.28 412.857 206.878 416.455 210.476 416.455C214.074 416.455 217.672 412.857 217.672 409.259C217.672 404.762 214.074 402.063 210.476 402.063Z" fill="#D08C84"/>
<path d="M290.529 402.063C286.931 402.063 283.333 405.661 283.333 409.259C283.333 412.857 286.931 416.455 290.529 416.455C294.127 416.455 297.725 412.857 297.725 409.259C297.725 404.762 295.026 402.063 290.529 402.063Z" fill="#D08C84"/>
<path d="M370.582 402.063C366.984 402.063 363.386 405.661 363.386 409.259C363.386 412.857 366.984 416.455 370.582 416.455C374.18 416.455 377.778 412.857 377.778 409.259C377.778 404.762 375.079 402.063 370.582 402.063Z" fill="#D08C84"/>
<path d="M451.534 402.063C447.937 402.063 444.339 405.661 444.339 409.259C444.339 412.857 447.937 416.455 451.534 416.455C455.132 416.455 458.73 412.857 458.73 409.259C457.831 404.762 455.132 402.063 451.534 402.063Z" fill="#D08C84"/>
<path d="M531.588 402.063C527.99 402.063 524.392 405.661 524.392 409.259C524.392 412.857 527.99 416.455 531.588 416.455C535.186 416.455 538.783 412.857 538.783 409.259C538.783 404.762 535.186 402.063 531.588 402.063Z" fill="#D08C84"/>
<path d="M611.64 80.9523C608.042 80.9523 604.444 84.5502 604.444 88.1481C604.444 91.746 608.042 95.3439 611.64 95.3439C615.238 95.3439 618.835 91.746 618.835 88.1481C618.835 83.6508 615.238 80.9523 611.64 80.9523Z" fill="#D08C84"/>
<path d="M691.692 80.9523C688.095 80.9523 684.497 84.5502 684.497 88.1481C684.497 91.746 688.095 95.3439 691.692 95.3439C695.29 95.3439 698.888 91.746 698.888 88.1481C698.888 83.6508 695.29 80.9523 691.692 80.9523Z" fill="#D08C84"/>
<path d="M771.746 80.9523C768.148 80.9523 764.55 84.5502 764.55 88.1481C764.55 91.746 768.148 95.3439 771.746 95.3439C775.344 95.3439 778.942 91.746 778.942 88.1481C778.942 83.6508 776.243 80.9523 771.746 80.9523Z" fill="#D08C84"/>
<path d="M851.799 80.9523C848.201 80.9523 844.603 84.5502 844.603 88.1481C844.603 91.746 848.201 95.3439 851.799 95.3439C855.397 95.3439 858.995 91.746 858.995 88.1481C858.995 83.6508 856.296 80.9523 851.799 80.9523Z" fill="#D08C84"/>
<path d="M932.751 80.9523C929.153 80.9523 925.555 84.5502 925.555 88.1481C925.555 91.746 929.153 95.3439 932.751 95.3439C936.349 95.3439 939.947 91.746 939.947 88.1481C939.047 83.6508 936.349 80.9523 932.751 80.9523Z" fill="#D08C84"/>
<path d="M1012.8 80.9523C1009.21 80.9523 1005.61 84.5502 1005.61 88.1481C1005.61 91.746 1009.21 95.3439 1012.8 95.3439C1016.4 95.3439 1020 91.746 1020 88.1481C1020 83.6508 1016.4 80.9523 1012.8 80.9523Z" fill="#D08C84"/>
<path d="M568.466 0C564.868 0 561.27 3.59791 561.27 7.19579C561.27 10.7937 564.868 14.3916 568.466 14.3916C572.064 14.3916 575.662 10.7937 575.662 7.19579C575.662 3.59791 572.064 0 568.466 0Z" fill="#D08C84"/>
<path d="M648.519 0C644.921 0 641.323 3.59791 641.323 7.19579C641.323 10.7937 644.921 14.3916 648.519 14.3916C652.116 14.3916 655.714 10.7937 655.714 7.19579C655.714 3.59791 653.016 0 648.519 0Z" fill="#D08C84"/>
<path d="M728.571 0C724.973 0 721.375 3.59791 721.375 7.19579C721.375 10.7937 724.973 14.3916 728.571 14.3916C732.169 14.3916 735.767 10.7937 735.767 7.19579C735.767 3.59791 733.068 0 728.571 0Z" fill="#D08C84"/>
<path d="M809.523 0C805.925 0 802.327 3.59791 802.327 7.19579C802.327 10.7937 805.925 14.3916 809.523 14.3916C813.121 14.3916 816.719 10.7937 816.719 7.19579C815.819 3.59791 813.121 0 809.523 0Z" fill="#D08C84"/>
<path d="M889.576 14.3916C893.55 14.3916 896.772 11.1699 896.772 7.19579C896.772 3.22168 893.55 0 889.576 0C885.602 0 882.38 3.22168 882.38 7.19579C882.38 11.1699 885.602 14.3916 889.576 14.3916Z" fill="#D08C84"/>
<path d="M969.629 14.3916C973.603 14.3916 976.825 11.1699 976.825 7.19579C976.825 3.22168 973.603 0 969.629 0C965.655 0 962.433 3.22168 962.433 7.19579C962.433 11.1699 965.655 14.3916 969.629 14.3916Z" fill="#D08C84"/>
<path d="M568.466 161.005C564.868 161.005 561.27 164.603 561.27 168.201C561.27 171.799 564.868 175.397 568.466 175.397C572.064 175.397 575.662 171.799 575.662 168.201C575.662 163.704 572.064 161.005 568.466 161.005Z" fill="#D08C84"/>
<path d="M648.519 161.005C644.921 161.005 641.323 164.603 641.323 168.201C641.323 171.799 644.921 175.397 648.519 175.397C652.116 175.397 655.714 171.799 655.714 168.201C655.714 163.704 653.016 161.005 648.519 161.005Z" fill="#D08C84"/>
<path d="M728.571 161.005C724.973 161.005 721.375 164.603 721.375 168.201C721.375 171.799 724.973 175.397 728.571 175.397C732.169 175.397 735.767 171.799 735.767 168.201C735.767 163.704 733.068 161.005 728.571 161.005Z" fill="#D08C84"/>
<path d="M809.523 161.005C805.925 161.005 802.327 164.603 802.327 168.201C802.327 171.799 805.925 175.397 809.523 175.397C813.121 175.397 816.719 171.799 816.719 168.201C815.819 163.704 813.121 161.005 809.523 161.005Z" fill="#D08C84"/>
<path d="M889.576 161.005C885.978 161.005 882.38 164.603 882.38 168.201C882.38 171.799 885.978 175.397 889.576 175.397C893.174 175.397 896.772 171.799 896.772 168.201C896.772 163.704 893.174 161.005 889.576 161.005Z" fill="#D08C84"/>
<path d="M969.629 161.005C966.031 161.005 962.433 164.603 962.433 168.201C962.433 171.799 966.031 175.397 969.629 175.397C973.227 175.397 976.825 171.799 976.825 168.201C976.825 163.704 973.227 161.005 969.629 161.005Z" fill="#D08C84"/>
<path d="M568.466 322.01C564.868 322.01 561.27 325.608 561.27 329.206C561.27 332.804 564.868 336.402 568.466 336.402C572.064 336.402 575.662 332.804 575.662 329.206C575.662 325.608 572.064 322.01 568.466 322.01Z" fill="#D08C84"/>
<path d="M648.519 322.01C644.921 322.01 641.323 325.608 641.323 329.206C641.323 332.804 644.921 336.402 648.519 336.402C652.116 336.402 655.714 332.804 655.714 329.206C655.714 325.608 653.016 322.01 648.519 322.01Z" fill="#D08C84"/>
<path d="M728.571 322.01C724.973 322.01 721.375 325.608 721.375 329.206C721.375 332.804 724.973 336.402 728.571 336.402C732.169 336.402 735.767 332.804 735.767 329.206C735.767 325.608 733.068 322.01 728.571 322.01Z" fill="#D08C84"/>
<path d="M809.523 322.01C805.925 322.01 802.327 325.608 802.327 329.206C802.327 332.804 805.925 336.402 809.523 336.402C813.121 336.402 816.719 332.804 816.719 329.206C816.719 325.608 813.121 322.01 809.523 322.01Z" fill="#D08C84"/>
<path d="M889.576 322.01C885.978 322.01 882.38 325.608 882.38 329.206C882.38 332.804 885.978 336.402 889.576 336.402C893.174 336.402 896.772 332.804 896.772 329.206C896.772 325.608 893.174 322.01 889.576 322.01Z" fill="#D08C84"/>
<path d="M969.629 322.01C966.031 322.01 962.433 325.608 962.433 329.206C962.433 332.804 966.031 336.402 969.629 336.402C973.227 336.402 976.825 332.804 976.825 329.206C976.825 325.608 973.227 322.01 969.629 322.01Z" fill="#D08C84"/>
<path d="M568.466 482.116C564.868 482.116 561.27 485.714 561.27 489.312V490.211V491.111C561.27 494.709 564.868 498.307 568.466 498.307C572.064 498.307 575.662 494.709 575.662 491.111V490.211V489.312C575.662 485.714 572.064 482.116 568.466 482.116Z" fill="#D08C84"/>
<path d="M648.519 482.116C644.921 482.116 641.323 485.714 641.323 489.312V490.211V491.111C641.323 494.709 644.921 498.307 648.519 498.307C652.116 498.307 655.714 494.709 655.714 491.111V490.211V489.312C655.714 485.714 653.016 482.116 648.519 482.116Z" fill="#D08C84"/>
<path d="M728.571 482.116C724.973 482.116 721.375 485.714 721.375 489.312V490.211V491.111C721.375 494.709 724.973 498.307 728.571 498.307C732.169 498.307 735.767 494.709 735.767 491.111V490.211V489.312C735.767 485.714 733.068 482.116 728.571 482.116Z" fill="#D08C84"/>
<path d="M809.523 482.116C805.925 482.116 802.327 485.714 802.327 489.312V490.211V491.111C802.327 494.709 805.925 498.307 809.523 498.307C813.121 498.307 816.719 494.709 816.719 491.111V490.211V489.312C815.819 485.714 813.121 482.116 809.523 482.116Z" fill="#D08C84"/>
<path d="M889.576 482.116C885.978 482.116 882.38 485.714 882.38 489.312V490.211V491.111C882.38 494.709 885.978 498.307 889.576 498.307C893.174 498.307 896.772 494.709 896.772 491.111V490.211V489.312C896.772 485.714 893.174 482.116 889.576 482.116Z" fill="#D08C84"/>
<path d="M969.629 482.116C966.031 482.116 962.433 485.714 962.433 489.312V490.211V491.111C962.433 494.709 966.031 498.307 969.629 498.307C973.227 498.307 976.825 494.709 976.825 491.111V490.211V489.312C976.825 485.714 973.227 482.116 969.629 482.116Z" fill="#D08C84"/>
<path d="M611.64 241.058C608.042 241.058 604.444 244.656 604.444 248.254C604.444 251.852 608.042 255.45 611.64 255.45C615.238 255.45 618.835 251.852 618.835 248.254C618.835 244.656 615.238 241.058 611.64 241.058Z" fill="#D08C84"/>
<path d="M691.692 241.058C688.095 241.058 684.497 244.656 684.497 248.254C684.497 251.852 688.095 255.45 691.692 255.45C695.29 255.45 698.888 251.852 698.888 248.254C698.888 244.656 695.29 241.058 691.692 241.058Z" fill="#D08C84"/>
<path d="M771.746 241.058C768.148 241.058 764.55 244.656 764.55 248.254C764.55 251.852 768.148 255.45 771.746 255.45C775.344 255.45 778.942 251.852 778.942 248.254C778.942 244.656 776.243 241.058 771.746 241.058Z" fill="#D08C84"/>
<path d="M851.799 241.058C848.201 241.058 844.603 244.656 844.603 248.254C844.603 251.852 848.201 255.45 851.799 255.45C855.397 255.45 858.995 251.852 858.995 248.254C858.995 244.656 856.296 241.058 851.799 241.058Z" fill="#D08C84"/>
<path d="M932.751 241.058C929.153 241.058 925.555 244.656 925.555 248.254C925.555 251.852 929.153 255.45 932.751 255.45C936.349 255.45 939.947 251.852 939.947 248.254C939.047 244.656 936.349 241.058 932.751 241.058Z" fill="#D08C84"/>
<path d="M1012.8 241.058C1009.21 241.058 1005.61 244.656 1005.61 248.254C1005.61 251.852 1009.21 255.45 1012.8 255.45C1016.4 255.45 1020 251.852 1020 248.254C1020 244.656 1016.4 241.058 1012.8 241.058Z" fill="#D08C84"/>
<path d="M611.64 402.063C608.042 402.063 604.444 405.661 604.444 409.259C604.444 412.857 608.042 416.455 611.64 416.455C615.238 416.455 618.835 412.857 618.835 409.259C618.835 404.762 615.238 402.063 611.64 402.063Z" fill="#D08C84"/>
<path d="M691.692 402.063C688.095 402.063 684.497 405.661 684.497 409.259C684.497 412.857 688.095 416.455 691.692 416.455C695.29 416.455 698.888 412.857 698.888 409.259C698.888 404.762 695.29 402.063 691.692 402.063Z" fill="#D08C84"/>
<path d="M771.746 402.063C768.148 402.063 764.55 405.661 764.55 409.259C764.55 412.857 768.148 416.455 771.746 416.455C775.344 416.455 778.942 412.857 778.942 409.259C778.942 404.762 776.243 402.063 771.746 402.063Z" fill="#D08C84"/>
<path d="M851.799 402.063C848.201 402.063 844.603 405.661 844.603 409.259C844.603 412.857 848.201 416.455 851.799 416.455C855.397 416.455 858.995 412.857 858.995 409.259C858.995 404.762 856.296 402.063 851.799 402.063Z" fill="#D08C84"/>
<path d="M932.751 402.063C929.153 402.063 925.555 405.661 925.555 409.259C925.555 412.857 929.153 416.455 932.751 416.455C936.349 416.455 939.947 412.857 939.947 409.259C939.047 404.762 936.349 402.063 932.751 402.063Z" fill="#D08C84"/>
<path d="M1012.8 402.063C1009.21 402.063 1005.61 405.661 1005.61 409.259C1005.61 412.857 1009.21 416.455 1012.8 416.455C1016.4 416.455 1020 412.857 1020 409.259C1020 404.762 1016.4 402.063 1012.8 402.063Z" fill="#D08C84"/>
<path d="M50.3708 579.259C54.345 579.259 57.5665 576.037 57.5665 572.063C57.5665 568.089 54.345 564.867 50.3708 564.867C46.3967 564.867 43.175 568.089 43.175 572.063C43.175 576.037 46.3967 579.259 50.3708 579.259Z" fill="#D08C84"/>
<path d="M130.423 565.767C126.825 565.767 123.227 569.365 123.227 572.963C123.227 576.561 126.825 580.159 130.423 580.159C134.021 580.159 137.619 576.561 137.619 572.963C137.619 568.465 134.021 565.767 130.423 565.767Z" fill="#D08C84"/>
<path d="M210.476 565.767C206.878 565.767 203.28 569.365 203.28 572.963C203.28 576.561 206.878 580.159 210.476 580.159C214.074 580.159 217.672 576.561 217.672 572.963C217.672 568.465 214.074 565.767 210.476 565.767Z" fill="#D08C84"/>
<path d="M290.529 565.767C286.931 565.767 283.333 569.365 283.333 572.963C283.333 576.561 286.931 580.159 290.529 580.159C294.127 580.159 297.725 576.561 297.725 572.963C297.725 568.465 295.026 565.767 290.529 565.767Z" fill="#D08C84"/>
<path d="M370.582 565.767C366.984 565.767 363.386 569.365 363.386 572.963C363.386 576.561 366.984 580.159 370.582 580.159C374.18 580.159 377.778 576.561 377.778 572.963C377.778 568.465 375.079 565.767 370.582 565.767Z" fill="#D08C84"/>
<path d="M451.534 579.259C455.509 579.259 458.73 576.037 458.73 572.063C458.73 568.089 455.509 564.867 451.534 564.867C447.56 564.867 444.339 568.089 444.339 572.063C444.339 576.037 447.56 579.259 451.534 579.259Z" fill="#D08C84"/>
<path d="M531.588 579.259C535.562 579.259 538.783 576.037 538.783 572.063C538.783 568.089 535.562 564.867 531.588 564.867C527.614 564.867 524.392 568.089 524.392 572.063C524.392 576.037 527.614 579.259 531.588 579.259Z" fill="#D08C84"/>
<path d="M611.64 565.767C608.042 565.767 604.444 569.365 604.444 572.963C604.444 576.561 608.042 580.159 611.64 580.159C615.238 580.159 618.835 576.561 618.835 572.963C618.835 568.465 615.238 565.767 611.64 565.767Z" fill="#D08C84"/>
<path d="M691.692 565.767C688.095 565.767 684.497 569.365 684.497 572.963C684.497 576.561 688.095 580.159 691.692 580.159C695.29 580.159 698.888 576.561 698.888 572.963C698.888 568.465 695.29 565.767 691.692 565.767Z" fill="#D08C84"/>
<path d="M771.746 565.767C768.148 565.767 764.55 569.365 764.55 572.963C764.55 576.561 768.148 580.159 771.746 580.159C775.344 580.159 778.942 576.561 778.942 572.963C778.942 568.465 776.243 565.767 771.746 565.767Z" fill="#D08C84"/>
<path d="M851.799 565.767C848.201 565.767 844.603 569.365 844.603 572.963C844.603 576.561 848.201 580.159 851.799 580.159C855.397 580.159 858.995 576.561 858.995 572.963C858.995 568.465 856.296 565.767 851.799 565.767Z" fill="#D08C84"/>
<path d="M932.751 579.259C936.725 579.259 939.947 576.037 939.947 572.063C939.947 568.089 936.725 564.867 932.751 564.867C928.777 564.867 925.555 568.089 925.555 572.063C925.555 576.037 928.777 579.259 932.751 579.259Z" fill="#D08C84"/>
<path d="M1012.8 565.767C1009.21 565.767 1005.61 569.365 1005.61 572.963C1005.61 576.561 1009.21 580.159 1012.8 580.159C1016.4 580.159 1020 576.561 1020 572.963C1020 568.465 1016.4 565.767 1012.8 565.767Z" fill="#D08C84"/>
<path d="M50.3708 721.375C46.773 721.375 43.175 724.973 43.175 728.571C43.175 732.169 46.773 735.767 50.3708 735.767C53.9687 735.767 57.5665 732.169 57.5665 728.571C57.5665 724.074 53.9687 721.375 50.3708 721.375Z" fill="#D08C84"/>
<path d="M130.423 721.375C126.825 721.375 123.227 724.973 123.227 728.571C123.227 732.169 126.825 735.767 130.423 735.767C134.021 735.767 137.619 732.169 137.619 728.571C137.619 724.074 134.021 721.375 130.423 721.375Z" fill="#D08C84"/>
<path d="M210.476 721.375C206.878 721.375 203.28 724.973 203.28 728.571C203.28 732.169 206.878 735.767 210.476 735.767C214.074 735.767 217.672 732.169 217.672 728.571C217.672 724.074 214.074 721.375 210.476 721.375Z" fill="#D08C84"/>
<path d="M290.529 721.375C286.931 721.375 283.333 724.973 283.333 728.571C283.333 732.169 286.931 735.767 290.529 735.767C294.127 735.767 297.725 732.169 297.725 728.571C297.725 724.074 295.026 721.375 290.529 721.375Z" fill="#D08C84"/>
<path d="M370.582 721.375C366.984 721.375 363.386 724.973 363.386 728.571C363.386 732.169 366.984 735.767 370.582 735.767C374.18 735.767 377.778 732.169 377.778 728.571C377.778 724.074 375.079 721.375 370.582 721.375Z" fill="#D08C84"/>
<path d="M451.534 721.375C447.937 721.375 444.339 724.973 444.339 728.571C444.339 732.169 447.937 735.767 451.534 735.767C455.132 735.767 458.73 732.169 458.73 728.571C457.831 724.074 455.132 721.375 451.534 721.375Z" fill="#D08C84"/>
<path d="M531.588 721.375C527.99 721.375 524.392 724.973 524.392 728.571C524.392 732.169 527.99 735.767 531.588 735.767C535.186 735.767 538.783 732.169 538.783 728.571C538.783 724.074 535.186 721.375 531.588 721.375Z" fill="#D08C84"/>
<path d="M7.19579 654.815C11.1699 654.815 14.3916 651.593 14.3916 647.619C14.3916 643.645 11.1699 640.423 7.19579 640.423C3.22168 640.423 0 643.645 0 647.619C0 651.593 3.22168 654.815 7.19579 654.815Z" fill="#D08C84"/>
<path d="M87.249 640.423C83.6511 640.423 80.0532 644.021 80.0532 647.619C80.0532 651.217 83.6511 654.815 87.249 654.815C90.8469 654.815 94.4448 651.217 94.4448 647.619C94.4448 643.122 90.8469 640.423 87.249 640.423Z" fill="#D08C84"/>
<path d="M167.302 640.423C163.704 640.423 160.106 644.021 160.106 647.619C160.106 651.217 163.704 654.815 167.302 654.815C170.9 654.815 174.498 651.217 174.498 647.619C174.498 643.122 171.799 640.423 167.302 640.423Z" fill="#D08C84"/>
<path d="M247.354 640.423C243.756 640.423 240.158 644.021 240.158 647.619C240.158 651.217 243.756 654.815 247.354 654.815C250.952 654.815 254.55 651.217 254.55 647.619C254.55 643.122 251.851 640.423 247.354 640.423Z" fill="#D08C84"/>
<path d="M328.306 640.423C324.708 640.423 321.11 644.021 321.11 647.619C321.11 651.217 324.708 654.815 328.306 654.815C331.904 654.815 335.502 651.217 335.502 647.619C334.603 643.122 331.904 640.423 328.306 640.423Z" fill="#D08C84"/>
<path d="M408.359 654.815C412.333 654.815 415.555 651.593 415.555 647.619C415.555 643.645 412.333 640.423 408.359 640.423C404.385 640.423 401.164 643.645 401.164 647.619C401.164 651.593 404.385 654.815 408.359 654.815Z" fill="#D08C84"/>
<path d="M488.413 654.815C492.387 654.815 495.608 651.593 495.608 647.619C495.608 643.645 492.387 640.423 488.413 640.423C484.438 640.423 481.217 643.645 481.217 647.619C481.217 651.593 484.438 654.815 488.413 654.815Z" fill="#D08C84"/>
<path d="M7.19579 800.529C3.59791 800.529 0 804.127 0 807.725C0 811.322 3.59791 814.92 7.19579 814.92C10.7937 814.92 14.3916 811.322 14.3916 807.725C14.3916 804.127 10.7937 800.529 7.19579 800.529Z" fill="#D08C84"/>
<path d="M87.249 800.529C83.6511 800.529 80.0532 804.127 80.0532 807.725C80.0532 811.322 83.6511 814.92 87.249 814.92C90.8469 814.92 94.4448 811.322 94.4448 807.725C94.4448 804.127 90.8469 800.529 87.249 800.529Z" fill="#D08C84"/>
<path d="M167.302 800.529C163.704 800.529 160.106 804.127 160.106 807.725C160.106 811.322 163.704 814.92 167.302 814.92C170.9 814.92 174.498 811.322 174.498 807.725C174.498 804.127 171.799 800.529 167.302 800.529Z" fill="#D08C84"/>
<path d="M247.354 800.529C243.756 800.529 240.158 804.127 240.158 807.725C240.158 811.322 243.756 814.92 247.354 814.92C250.952 814.92 254.55 811.322 254.55 807.725C254.55 804.127 251.851 800.529 247.354 800.529Z" fill="#D08C84"/>
<path d="M328.306 800.529C324.708 800.529 321.11 804.127 321.11 807.725C321.11 811.322 324.708 814.92 328.306 814.92C331.904 814.92 335.502 811.322 335.502 807.725C334.603 804.127 331.904 800.529 328.306 800.529Z" fill="#D08C84"/>
<path d="M408.359 800.529C404.761 800.529 401.164 804.127 401.164 807.725C401.164 811.322 404.761 814.92 408.359 814.92C411.957 814.92 415.555 811.322 415.555 807.725C415.555 804.127 411.957 800.529 408.359 800.529Z" fill="#D08C84"/>
<path d="M488.413 800.529C484.815 800.529 481.217 804.127 481.217 807.725C481.217 811.322 484.815 814.92 488.413 814.92C492.01 814.92 495.608 811.322 495.608 807.725C495.608 804.127 492.01 800.529 488.413 800.529Z" fill="#D08C84"/>
<path d="M7.19579 961.534C3.59791 961.534 0 965.132 0 968.73C0 972.328 3.59791 975.926 7.19579 975.926C10.7937 975.926 14.3916 972.328 14.3916 968.73C14.3916 965.132 10.7937 961.534 7.19579 961.534Z" fill="#D08C84"/>
<path d="M87.249 961.534C83.6511 961.534 80.0532 965.132 80.0532 968.73C80.0532 972.328 83.6511 975.926 87.249 975.926C90.8469 975.926 94.4448 972.328 94.4448 968.73C94.4448 965.132 90.8469 961.534 87.249 961.534Z" fill="#D08C84"/>
<path d="M167.302 961.534C163.704 961.534 160.106 965.132 160.106 968.73C160.106 972.328 163.704 975.926 167.302 975.926C170.9 975.926 174.498 972.328 174.498 968.73C174.498 965.132 171.799 961.534 167.302 961.534Z" fill="#D08C84"/>
<path d="M247.354 961.534C243.756 961.534 240.158 965.132 240.158 968.73C240.158 972.328 243.756 975.926 247.354 975.926C250.952 975.926 254.55 972.328 254.55 968.73C254.55 965.132 251.851 961.534 247.354 961.534Z" fill="#D08C84"/>
<path d="M328.306 961.534C324.708 961.534 321.11 965.132 321.11 968.73C321.11 972.328 324.708 975.926 328.306 975.926C331.904 975.926 335.502 972.328 335.502 968.73C335.502 965.132 331.904 961.534 328.306 961.534Z" fill="#D08C84"/>
<path d="M408.359 961.534C404.761 961.534 401.164 965.132 401.164 968.73C401.164 972.328 404.761 975.926 408.359 975.926C411.957 975.926 415.555 972.328 415.555 968.73C415.555 965.132 411.957 961.534 408.359 961.534Z" fill="#D08C84"/>
<path d="M488.413 961.534C484.815 961.534 481.217 965.132 481.217 968.73C481.217 972.328 484.815 975.926 488.413 975.926C492.01 975.926 495.608 972.328 495.608 968.73C495.608 965.132 492.01 961.534 488.413 961.534Z" fill="#D08C84"/>
<path d="M7.19579 1122.54C3.59791 1122.54 0 1126.14 0 1129.74V1130.63V1131.53C0 1135.13 3.59791 1138.73 7.19579 1138.73C10.7937 1138.73 14.3916 1135.13 14.3916 1131.53V1130.63V1129.74C14.3916 1126.14 10.7937 1122.54 7.19579 1122.54Z" fill="#D08C84"/>
<path d="M87.249 1122.54C83.6511 1122.54 80.0532 1126.14 80.0532 1129.74V1130.63V1131.53C80.0532 1135.13 83.6511 1138.73 87.249 1138.73C90.8469 1138.73 94.4448 1135.13 94.4448 1131.53V1130.63V1129.74C94.4448 1126.14 90.8469 1122.54 87.249 1122.54Z" fill="#D08C84"/>
<path d="M167.302 1122.54C163.704 1122.54 160.106 1126.14 160.106 1129.74V1130.63V1131.53C160.106 1135.13 163.704 1138.73 167.302 1138.73C170.9 1138.73 174.498 1135.13 174.498 1131.53V1130.63V1129.74C174.498 1126.14 171.799 1122.54 167.302 1122.54Z" fill="#D08C84"/>
<path d="M247.354 1122.54C243.756 1122.54 240.158 1126.14 240.158 1129.74V1130.63V1131.53C240.158 1135.13 243.756 1138.73 247.354 1138.73C250.952 1138.73 254.55 1135.13 254.55 1131.53V1130.63V1129.74C254.55 1126.14 251.851 1122.54 247.354 1122.54Z" fill="#D08C84"/>
<path d="M328.306 1122.54C324.708 1122.54 321.11 1126.14 321.11 1129.74V1130.63V1131.53C321.11 1135.13 324.708 1138.73 328.306 1138.73C331.904 1138.73 335.502 1135.13 335.502 1131.53V1130.63V1129.74C334.603 1126.14 331.904 1122.54 328.306 1122.54Z" fill="#D08C84"/>
<path d="M408.359 1122.54C404.761 1122.54 401.164 1126.14 401.164 1129.74V1130.63V1131.53C401.164 1135.13 404.761 1138.73 408.359 1138.73C411.957 1138.73 415.555 1135.13 415.555 1131.53V1130.63V1129.74C415.555 1126.14 411.957 1122.54 408.359 1122.54Z" fill="#D08C84"/>
<path d="M488.413 1122.54C484.815 1122.54 481.217 1126.14 481.217 1129.74V1130.63V1131.53C481.217 1135.13 484.815 1138.73 488.413 1138.73C492.01 1138.73 495.608 1135.13 495.608 1131.53V1130.63V1129.74C495.608 1126.14 492.01 1122.54 488.413 1122.54Z" fill="#D08C84"/>
<path d="M50.3708 881.481C46.773 881.481 43.175 885.079 43.175 888.677C43.175 892.275 46.773 895.873 50.3708 895.873C53.9687 895.873 57.5665 892.275 57.5665 888.677C57.5665 884.18 53.9687 881.481 50.3708 881.481Z" fill="#D08C84"/>
<path d="M130.423 881.481C126.825 881.481 123.227 885.079 123.227 888.677C123.227 892.275 126.825 895.873 130.423 895.873C134.021 895.873 137.619 892.275 137.619 888.677C137.619 884.18 134.021 881.481 130.423 881.481Z" fill="#D08C84"/>
<path d="M210.476 881.481C206.878 881.481 203.28 885.079 203.28 888.677C203.28 892.275 206.878 895.873 210.476 895.873C214.074 895.873 217.672 892.275 217.672 888.677C217.672 884.18 214.074 881.481 210.476 881.481Z" fill="#D08C84"/>
<path d="M290.529 881.481C286.931 881.481 283.333 885.079 283.333 888.677C283.333 892.275 286.931 895.873 290.529 895.873C294.127 895.873 297.725 892.275 297.725 888.677C297.725 884.18 295.026 881.481 290.529 881.481Z" fill="#D08C84"/>
<path d="M370.582 881.481C366.984 881.481 363.386 885.079 363.386 888.677C363.386 892.275 366.984 895.873 370.582 895.873C374.18 895.873 377.778 892.275 377.778 888.677C377.778 884.18 375.079 881.481 370.582 881.481Z" fill="#D08C84"/>
<path d="M451.534 881.481C447.937 881.481 444.339 885.079 444.339 888.677C444.339 892.275 447.937 895.873 451.534 895.873C455.132 895.873 458.73 892.275 458.73 888.677C457.831 884.18 455.132 881.481 451.534 881.481Z" fill="#D08C84"/>
<path d="M531.588 881.481C527.99 881.481 524.392 885.079 524.392 888.677C524.392 892.275 527.99 895.873 531.588 895.873C535.186 895.873 538.783 892.275 538.783 888.677C538.783 884.18 535.186 881.481 531.588 881.481Z" fill="#D08C84"/>
<path d="M50.3708 1041.59C46.773 1041.59 43.175 1045.18 43.175 1048.78C43.175 1052.38 46.773 1055.98 50.3708 1055.98C53.9687 1055.98 57.5665 1052.38 57.5665 1048.78C57.5665 1045.18 53.9687 1041.59 50.3708 1041.59Z" fill="#D08C84"/>
<path d="M130.423 1041.59C126.825 1041.59 123.227 1045.18 123.227 1048.78C123.227 1052.38 126.825 1055.98 130.423 1055.98C134.021 1055.98 137.619 1052.38 137.619 1048.78C137.619 1045.18 134.021 1041.59 130.423 1041.59Z" fill="#D08C84"/>
<path d="M210.476 1041.59C206.878 1041.59 203.28 1045.18 203.28 1048.78C203.28 1052.38 206.878 1055.98 210.476 1055.98C214.074 1055.98 217.672 1052.38 217.672 1048.78C217.672 1045.18 214.074 1041.59 210.476 1041.59Z" fill="#D08C84"/>
<path d="M290.529 1041.59C286.931 1041.59 283.333 1045.18 283.333 1048.78C283.333 1052.38 286.931 1055.98 290.529 1055.98C294.127 1055.98 297.725 1052.38 297.725 1048.78C297.725 1045.18 295.026 1041.59 290.529 1041.59Z" fill="#D08C84"/>
<path d="M370.582 1041.59C366.984 1041.59 363.386 1045.18 363.386 1048.78C363.386 1052.38 366.984 1055.98 370.582 1055.98C374.18 1055.98 377.778 1052.38 377.778 1048.78C377.778 1045.18 375.079 1041.59 370.582 1041.59Z" fill="#D08C84"/>
<path d="M451.534 1041.59C447.937 1041.59 444.339 1045.18 444.339 1048.78C444.339 1052.38 447.937 1055.98 451.534 1055.98C455.132 1055.98 458.73 1052.38 458.73 1048.78C457.831 1045.18 455.132 1041.59 451.534 1041.59Z" fill="#D08C84"/>
<path d="M531.588 1041.59C527.99 1041.59 524.392 1045.18 524.392 1048.78C524.392 1052.38 527.99 1055.98 531.588 1055.98C535.186 1055.98 538.783 1052.38 538.783 1048.78C538.783 1045.18 535.186 1041.59 531.588 1041.59Z" fill="#D08C84"/>
<path d="M611.64 721.375C608.042 721.375 604.444 724.973 604.444 728.571C604.444 732.169 608.042 735.767 611.64 735.767C615.238 735.767 618.835 732.169 618.835 728.571C618.835 724.074 615.238 721.375 611.64 721.375Z" fill="#D08C84"/>
<path d="M691.692 721.375C688.095 721.375 684.497 724.973 684.497 728.571C684.497 732.169 688.095 735.767 691.692 735.767C695.29 735.767 698.888 732.169 698.888 728.571C698.888 724.074 695.29 721.375 691.692 721.375Z" fill="#D08C84"/>
<path d="M771.746 721.375C768.148 721.375 764.55 724.973 764.55 728.571C764.55 732.169 768.148 735.767 771.746 735.767C775.344 735.767 778.942 732.169 778.942 728.571C778.942 724.074 776.243 721.375 771.746 721.375Z" fill="#D08C84"/>
<path d="M851.799 721.375C848.201 721.375 844.603 724.973 844.603 728.571C844.603 732.169 848.201 735.767 851.799 735.767C855.397 735.767 858.995 732.169 858.995 728.571C858.995 724.074 856.296 721.375 851.799 721.375Z" fill="#D08C84"/>
<path d="M932.751 721.375C929.153 721.375 925.555 724.973 925.555 728.571C925.555 732.169 929.153 735.767 932.751 735.767C936.349 735.767 939.947 732.169 939.947 728.571C939.047 724.074 936.349 721.375 932.751 721.375Z" fill="#D08C84"/>
<path d="M1012.8 721.375C1009.21 721.375 1005.61 724.973 1005.61 728.571C1005.61 732.169 1009.21 735.767 1012.8 735.767C1016.4 735.767 1020 732.169 1020 728.571C1020 724.074 1016.4 721.375 1012.8 721.375Z" fill="#D08C84"/>
<path d="M568.466 640.423C564.868 640.423 561.27 644.021 561.27 647.619C561.27 651.217 564.868 654.815 568.466 654.815C572.064 654.815 575.662 651.217 575.662 647.619C575.662 643.122 572.064 640.423 568.466 640.423Z" fill="#D08C84"/>
<path d="M648.519 640.423C644.921 640.423 641.323 644.021 641.323 647.619C641.323 651.217 644.921 654.815 648.519 654.815C652.116 654.815 655.714 651.217 655.714 647.619C655.714 643.122 653.016 640.423 648.519 640.423Z" fill="#D08C84"/>
<path d="M728.571 640.423C724.973 640.423 721.375 644.021 721.375 647.619C721.375 651.217 724.973 654.815 728.571 654.815C732.169 654.815 735.767 651.217 735.767 647.619C735.767 643.122 733.068 640.423 728.571 640.423Z" fill="#D08C84"/>
<path d="M809.523 640.423C805.925 640.423 802.327 644.021 802.327 647.619C802.327 651.217 805.925 654.815 809.523 654.815C813.121 654.815 816.719 651.217 816.719 647.619C815.819 643.122 813.121 640.423 809.523 640.423Z" fill="#D08C84"/>
<path d="M889.576 654.815C893.55 654.815 896.772 651.593 896.772 647.619C896.772 643.645 893.55 640.423 889.576 640.423C885.602 640.423 882.38 643.645 882.38 647.619C882.38 651.593 885.602 654.815 889.576 654.815Z" fill="#D08C84"/>
<path d="M969.629 654.815C973.603 654.815 976.825 651.593 976.825 647.619C976.825 643.645 973.603 640.423 969.629 640.423C965.655 640.423 962.433 643.645 962.433 647.619C962.433 651.593 965.655 654.815 969.629 654.815Z" fill="#D08C84"/>
<path d="M568.466 800.529C564.868 800.529 561.27 804.127 561.27 807.725C561.27 811.322 564.868 814.92 568.466 814.92C572.064 814.92 575.662 811.322 575.662 807.725C575.662 804.127 572.064 800.529 568.466 800.529Z" fill="#D08C84"/>
<path d="M648.519 800.529C644.921 800.529 641.323 804.127 641.323 807.725C641.323 811.322 644.921 814.92 648.519 814.92C652.116 814.92 655.714 811.322 655.714 807.725C655.714 804.127 653.016 800.529 648.519 800.529Z" fill="#D08C84"/>
<path d="M728.571 800.529C724.973 800.529 721.375 804.127 721.375 807.725C721.375 811.322 724.973 814.92 728.571 814.92C732.169 814.92 735.767 811.322 735.767 807.725C735.767 804.127 733.068 800.529 728.571 800.529Z" fill="#D08C84"/>
<path d="M809.523 800.529C805.925 800.529 802.327 804.127 802.327 807.725C802.327 811.322 805.925 814.92 809.523 814.92C813.121 814.92 816.719 811.322 816.719 807.725C815.819 804.127 813.121 800.529 809.523 800.529Z" fill="#D08C84"/>
<path d="M889.576 800.529C885.978 800.529 882.38 804.127 882.38 807.725C882.38 811.322 885.978 814.92 889.576 814.92C893.174 814.92 896.772 811.322 896.772 807.725C896.772 804.127 893.174 800.529 889.576 800.529Z" fill="#D08C84"/>
<path d="M969.629 800.529C966.031 800.529 962.433 804.127 962.433 807.725C962.433 811.322 966.031 814.92 969.629 814.92C973.227 814.92 976.825 811.322 976.825 807.725C976.825 804.127 973.227 800.529 969.629 800.529Z" fill="#D08C84"/>
<path d="M568.466 961.534C564.868 961.534 561.27 965.132 561.27 968.73C561.27 972.328 564.868 975.926 568.466 975.926C572.064 975.926 575.662 972.328 575.662 968.73C575.662 965.132 572.064 961.534 568.466 961.534Z" fill="#D08C84"/>
<path d="M648.519 961.534C644.921 961.534 641.323 965.132 641.323 968.73C641.323 972.328 644.921 975.926 648.519 975.926C652.116 975.926 655.714 972.328 655.714 968.73C655.714 965.132 653.016 961.534 648.519 961.534Z" fill="#D08C84"/>
<path d="M728.571 961.534C724.973 961.534 721.375 965.132 721.375 968.73C721.375 972.328 724.973 975.926 728.571 975.926C732.169 975.926 735.767 972.328 735.767 968.73C735.767 965.132 733.068 961.534 728.571 961.534Z" fill="#D08C84"/>
<path d="M809.523 961.534C805.925 961.534 802.327 965.132 802.327 968.73C802.327 972.328 805.925 975.926 809.523 975.926C813.121 975.926 816.719 972.328 816.719 968.73C816.719 965.132 813.121 961.534 809.523 961.534Z" fill="#D08C84"/>
<path d="M889.576 961.534C885.978 961.534 882.38 965.132 882.38 968.73C882.38 972.328 885.978 975.926 889.576 975.926C893.174 975.926 896.772 972.328 896.772 968.73C896.772 965.132 893.174 961.534 889.576 961.534Z" fill="#D08C84"/>
<path d="M969.629 961.534C966.031 961.534 962.433 965.132 962.433 968.73C962.433 972.328 966.031 975.926 969.629 975.926C973.227 975.926 976.825 972.328 976.825 968.73C976.825 965.132 973.227 961.534 969.629 961.534Z" fill="#D08C84"/>
<path d="M568.466 1122.54C564.868 1122.54 561.27 1126.14 561.27 1129.74V1130.63V1131.53C561.27 1135.13 564.868 1138.73 568.466 1138.73C572.064 1138.73 575.662 1135.13 575.662 1131.53V1130.63V1129.74C575.662 1126.14 572.064 1122.54 568.466 1122.54Z" fill="#D08C84"/>
<path d="M648.519 1122.54C644.921 1122.54 641.323 1126.14 641.323 1129.74V1130.63V1131.53C641.323 1135.13 644.921 1138.73 648.519 1138.73C652.116 1138.73 655.714 1135.13 655.714 1131.53V1130.63V1129.74C655.714 1126.14 653.016 1122.54 648.519 1122.54Z" fill="#D08C84"/>
<path d="M728.571 1122.54C724.973 1122.54 721.375 1126.14 721.375 1129.74V1130.63V1131.53C721.375 1135.13 724.973 1138.73 728.571 1138.73C732.169 1138.73 735.767 1135.13 735.767 1131.53V1130.63V1129.74C735.767 1126.14 733.068 1122.54 728.571 1122.54Z" fill="#D08C84"/>
<path d="M809.523 1122.54C805.925 1122.54 802.327 1126.14 802.327 1129.74V1130.63V1131.53C802.327 1135.13 805.925 1138.73 809.523 1138.73C813.121 1138.73 816.719 1135.13 816.719 1131.53V1130.63V1129.74C815.819 1126.14 813.121 1122.54 809.523 1122.54Z" fill="#D08C84"/>
<path d="M889.576 1122.54C885.978 1122.54 882.38 1126.14 882.38 1129.74V1130.63V1131.53C882.38 1135.13 885.978 1138.73 889.576 1138.73C893.174 1138.73 896.772 1135.13 896.772 1131.53V1130.63V1129.74C896.772 1126.14 893.174 1122.54 889.576 1122.54Z" fill="#D08C84"/>
<path d="M969.629 1122.54C966.031 1122.54 962.433 1126.14 962.433 1129.74V1130.63V1131.53C962.433 1135.13 966.031 1138.73 969.629 1138.73C973.227 1138.73 976.825 1135.13 976.825 1131.53V1130.63V1129.74C976.825 1126.14 973.227 1122.54 969.629 1122.54Z" fill="#D08C84"/>
<path d="M611.64 881.481C608.042 881.481 604.444 885.079 604.444 888.677C604.444 892.275 608.042 895.873 611.64 895.873C615.238 895.873 618.835 892.275 618.835 888.677C618.835 884.18 615.238 881.481 611.64 881.481Z" fill="#D08C84"/>
<path d="M691.692 881.481C688.095 881.481 684.497 885.079 684.497 888.677C684.497 892.275 688.095 895.873 691.692 895.873C695.29 895.873 698.888 892.275 698.888 888.677C698.888 884.18 695.29 881.481 691.692 881.481Z" fill="#D08C84"/>
<path d="M771.746 881.481C768.148 881.481 764.55 885.079 764.55 888.677C764.55 892.275 768.148 895.873 771.746 895.873C775.344 895.873 778.942 892.275 778.942 888.677C778.942 884.18 776.243 881.481 771.746 881.481Z" fill="#D08C84"/>
<path d="M851.799 881.481C848.201 881.481 844.603 885.079 844.603 888.677C844.603 892.275 848.201 895.873 851.799 895.873C855.397 895.873 858.995 892.275 858.995 888.677C858.995 884.18 856.296 881.481 851.799 881.481Z" fill="#D08C84"/>
<path d="M932.751 881.481C929.153 881.481 925.555 885.079 925.555 888.677C925.555 892.275 929.153 895.873 932.751 895.873C936.349 895.873 939.947 892.275 939.947 888.677C939.047 884.18 936.349 881.481 932.751 881.481Z" fill="#D08C84"/>
<path d="M1012.8 881.481C1009.21 881.481 1005.61 885.079 1005.61 888.677C1005.61 892.275 1009.21 895.873 1012.8 895.873C1016.4 895.873 1020 892.275 1020 888.677C1020 884.18 1016.4 881.481 1012.8 881.481Z" fill="#D08C84"/>
<path d="M611.64 1041.59C608.042 1041.59 604.444 1045.18 604.444 1048.78C604.444 1052.38 608.042 1055.98 611.64 1055.98C615.238 1055.98 618.835 1052.38 618.835 1048.78C618.835 1045.18 615.238 1041.59 611.64 1041.59Z" fill="#D08C84"/>
<path d="M691.692 1041.59C688.095 1041.59 684.497 1045.18 684.497 1048.78C684.497 1052.38 688.095 1055.98 691.692 1055.98C695.29 1055.98 698.888 1052.38 698.888 1048.78C698.888 1045.18 695.29 1041.59 691.692 1041.59Z" fill="#D08C84"/>
<path d="M771.746 1041.59C768.148 1041.59 764.55 1045.18 764.55 1048.78C764.55 1052.38 768.148 1055.98 771.746 1055.98C775.344 1055.98 778.942 1052.38 778.942 1048.78C778.942 1045.18 776.243 1041.59 771.746 1041.59Z" fill="#D08C84"/>
<path d="M851.799 1041.59C848.201 1041.59 844.603 1045.18 844.603 1048.78C844.603 1052.38 848.201 1055.98 851.799 1055.98C855.397 1055.98 858.995 1052.38 858.995 1048.78C858.995 1045.18 856.296 1041.59 851.799 1041.59Z" fill="#D08C84"/>
<path d="M932.751 1041.59C929.153 1041.59 925.555 1045.18 925.555 1048.78C925.555 1052.38 929.153 1055.98 932.751 1055.98C936.349 1055.98 939.947 1052.38 939.947 1048.78C939.047 1045.18 936.349 1041.59 932.751 1041.59Z" fill="#D08C84"/>
<path d="M1012.8 1041.59C1009.21 1041.59 1005.61 1045.18 1005.61 1048.78C1005.61 1052.38 1009.21 1055.98 1012.8 1055.98C1016.4 1055.98 1020 1052.38 1020 1048.78C1020 1045.18 1016.4 1041.59 1012.8 1041.59Z" fill="#D08C84"/>
<path d="M50.3708 1219.68C54.345 1219.68 57.5665 1216.46 57.5665 1212.49C57.5665 1208.51 54.345 1205.29 50.3708 1205.29C46.3967 1205.29 43.175 1208.51 43.175 1212.49C43.175 1216.46 46.3967 1219.68 50.3708 1219.68Z" fill="#D08C84"/>
<path d="M130.423 1205.29C126.825 1205.29 123.227 1208.89 123.227 1212.49C123.227 1216.08 126.825 1219.68 130.423 1219.68C134.021 1219.68 137.619 1216.08 137.619 1212.49C137.619 1208.89 134.021 1205.29 130.423 1205.29Z" fill="#D08C84"/>
<path d="M210.476 1205.29C206.878 1205.29 203.28 1208.89 203.28 1212.49C203.28 1216.08 206.878 1219.68 210.476 1219.68C214.074 1219.68 217.672 1216.08 217.672 1212.49C217.672 1208.89 214.074 1205.29 210.476 1205.29Z" fill="#D08C84"/>
<path d="M290.529 1205.29C286.931 1205.29 283.333 1208.89 283.333 1212.49C283.333 1216.08 286.931 1219.68 290.529 1219.68C294.127 1219.68 297.725 1216.08 297.725 1212.49C297.725 1208.89 295.026 1205.29 290.529 1205.29Z" fill="#D08C84"/>
<path d="M370.582 1205.29C366.984 1205.29 363.386 1208.89 363.386 1212.49C363.386 1216.08 366.984 1219.68 370.582 1219.68C374.18 1219.68 377.778 1216.08 377.778 1212.49C377.778 1208.89 375.079 1205.29 370.582 1205.29Z" fill="#D08C84"/>
<path d="M451.534 1219.68C455.509 1219.68 458.73 1216.46 458.73 1212.49C458.73 1208.51 455.509 1205.29 451.534 1205.29C447.56 1205.29 444.339 1208.51 444.339 1212.49C444.339 1216.46 447.56 1219.68 451.534 1219.68Z" fill="#D08C84"/>
<path d="M531.588 1219.68C535.562 1219.68 538.783 1216.46 538.783 1212.49C538.783 1208.51 535.562 1205.29 531.588 1205.29C527.614 1205.29 524.392 1208.51 524.392 1212.49C524.392 1216.46 527.614 1219.68 531.588 1219.68Z" fill="#D08C84"/>
<path d="M7.19579 1285.34C3.59791 1285.34 0 1288.94 0 1292.54C0 1296.14 3.59791 1299.74 7.19579 1299.74C10.7937 1299.74 14.3916 1296.14 14.3916 1292.54C14.3916 1288.94 10.7937 1285.34 7.19579 1285.34Z" fill="#D08C84"/>
<path d="M87.249 1285.34C83.6511 1285.34 80.0532 1288.94 80.0532 1292.54C80.0532 1296.14 83.6511 1299.74 87.249 1299.74C90.8469 1299.74 94.4448 1296.14 94.4448 1292.54C94.4448 1288.94 90.8469 1285.34 87.249 1285.34Z" fill="#D08C84"/>
<path d="M167.302 1285.34C163.704 1285.34 160.106 1288.94 160.106 1292.54C160.106 1296.14 163.704 1299.74 167.302 1299.74C170.9 1299.74 174.498 1296.14 174.498 1292.54C174.498 1288.94 171.799 1285.34 167.302 1285.34Z" fill="#D08C84"/>
<path d="M247.354 1285.34C243.756 1285.34 240.158 1288.94 240.158 1292.54C240.158 1296.14 243.756 1299.74 247.354 1299.74C250.952 1299.74 254.55 1296.14 254.55 1292.54C254.55 1288.94 251.851 1285.34 247.354 1285.34Z" fill="#D08C84"/>
<path d="M328.306 1285.34C324.708 1285.34 321.11 1288.94 321.11 1292.54C321.11 1296.14 324.708 1299.74 328.306 1299.74C331.904 1299.74 335.502 1296.14 335.502 1292.54C335.502 1288.94 331.904 1285.34 328.306 1285.34Z" fill="#D08C84"/>
<path d="M408.359 1285.34C404.761 1285.34 401.164 1288.94 401.164 1292.54C401.164 1296.14 404.761 1299.74 408.359 1299.74C411.957 1299.74 415.555 1296.14 415.555 1292.54C415.555 1288.94 411.957 1285.34 408.359 1285.34Z" fill="#D08C84"/>
<path d="M488.413 1285.34C484.815 1285.34 481.217 1288.94 481.217 1292.54C481.217 1296.14 484.815 1299.74 488.413 1299.74C492.01 1299.74 495.608 1296.14 495.608 1292.54C495.608 1288.94 492.01 1285.34 488.413 1285.34Z" fill="#D08C84"/>
<path d="M7.19579 1446.35C3.59791 1446.35 0 1449.95 0 1453.54C0 1457.14 3.59791 1460.74 7.19579 1460.74C10.7937 1460.74 14.3916 1457.14 14.3916 1453.54C14.3916 1449.95 10.7937 1446.35 7.19579 1446.35Z" fill="#D08C84"/>
<path d="M87.249 1446.35C83.6511 1446.35 80.0532 1449.95 80.0532 1453.54C80.0532 1457.14 83.6511 1460.74 87.249 1460.74C90.8469 1460.74 94.4448 1457.14 94.4448 1453.54C94.4448 1449.95 90.8469 1446.35 87.249 1446.35Z" fill="#D08C84"/>
<path d="M167.302 1446.35C163.704 1446.35 160.106 1449.95 160.106 1453.54C160.106 1457.14 163.704 1460.74 167.302 1460.74C170.9 1460.74 174.498 1457.14 174.498 1453.54C174.498 1449.95 171.799 1446.35 167.302 1446.35Z" fill="#D08C84"/>
<path d="M247.354 1446.35C243.756 1446.35 240.158 1449.95 240.158 1453.54C240.158 1457.14 243.756 1460.74 247.354 1460.74C250.952 1460.74 254.55 1457.14 254.55 1453.54C254.55 1449.95 251.851 1446.35 247.354 1446.35Z" fill="#D08C84"/>
<path d="M328.306 1446.35C324.708 1446.35 321.11 1449.95 321.11 1453.54C321.11 1457.14 324.708 1460.74 328.306 1460.74C331.904 1460.74 335.502 1457.14 335.502 1453.54C335.502 1449.95 331.904 1446.35 328.306 1446.35Z" fill="#D08C84"/>
<path d="M408.359 1446.35C404.761 1446.35 401.164 1449.95 401.164 1453.54C401.164 1457.14 404.761 1460.74 408.359 1460.74C411.957 1460.74 415.555 1457.14 415.555 1453.54C415.555 1449.95 411.957 1446.35 408.359 1446.35Z" fill="#D08C84"/>
<path d="M488.413 1446.35C484.815 1446.35 481.217 1449.95 481.217 1453.54C481.217 1457.14 484.815 1460.74 488.413 1460.74C492.01 1460.74 495.608 1457.14 495.608 1453.54C495.608 1449.95 492.01 1446.35 488.413 1446.35Z" fill="#D08C84"/>
<path d="M50.3708 1365.4C46.773 1365.4 43.175 1368.99 43.175 1372.59C43.175 1376.19 46.773 1379.79 50.3708 1379.79C53.9687 1379.79 57.5665 1376.19 57.5665 1372.59C57.5665 1368.99 53.9687 1365.4 50.3708 1365.4Z" fill="#D08C84"/>
<path d="M130.423 1365.4C126.825 1365.4 123.227 1368.99 123.227 1372.59C123.227 1376.19 126.825 1379.79 130.423 1379.79C134.021 1379.79 137.619 1376.19 137.619 1372.59C137.619 1368.99 134.021 1365.4 130.423 1365.4Z" fill="#D08C84"/>
<path d="M210.476 1365.4C206.878 1365.4 203.28 1368.99 203.28 1372.59C203.28 1376.19 206.878 1379.79 210.476 1379.79C214.074 1379.79 217.672 1376.19 217.672 1372.59C217.672 1368.99 214.074 1365.4 210.476 1365.4Z" fill="#D08C84"/>
<path d="M290.529 1365.4C286.931 1365.4 283.333 1368.99 283.333 1372.59C283.333 1376.19 286.931 1379.79 290.529 1379.79C294.127 1379.79 297.725 1376.19 297.725 1372.59C297.725 1368.99 295.026 1365.4 290.529 1365.4Z" fill="#D08C84"/>
<path d="M370.582 1365.4C366.984 1365.4 363.386 1368.99 363.386 1372.59C363.386 1376.19 366.984 1379.79 370.582 1379.79C374.18 1379.79 377.778 1376.19 377.778 1372.59C377.778 1368.99 375.079 1365.4 370.582 1365.4Z" fill="#D08C84"/>
<path d="M451.534 1365.4C447.937 1365.4 444.339 1368.99 444.339 1372.59C444.339 1376.19 447.937 1379.79 451.534 1379.79C455.132 1379.79 458.73 1376.19 458.73 1372.59C457.831 1368.99 455.132 1365.4 451.534 1365.4Z" fill="#D08C84"/>
<path d="M531.588 1365.4C527.99 1365.4 524.392 1368.99 524.392 1372.59C524.392 1376.19 527.99 1379.79 531.588 1379.79C535.186 1379.79 538.783 1376.19 538.783 1372.59C538.783 1368.99 535.186 1365.4 531.588 1365.4Z" fill="#D08C84"/>
<path d="M50.3708 1526.4C46.773 1526.4 43.175 1530 43.175 1533.6C43.175 1537.2 46.773 1540.79 50.3708 1540.79C53.9687 1540.79 57.5665 1537.2 57.5665 1533.6C57.5665 1529.1 53.9687 1526.4 50.3708 1526.4Z" fill="#D08C84"/>
<path d="M130.423 1526.4C126.825 1526.4 123.227 1530 123.227 1533.6C123.227 1537.2 126.825 1540.79 130.423 1540.79C134.021 1540.79 137.619 1537.2 137.619 1533.6C137.619 1529.1 134.021 1526.4 130.423 1526.4Z" fill="#D08C84"/>
<path d="M210.476 1526.4C206.878 1526.4 203.28 1530 203.28 1533.6C203.28 1537.2 206.878 1540.79 210.476 1540.79C214.074 1540.79 217.672 1537.2 217.672 1533.6C217.672 1529.1 214.074 1526.4 210.476 1526.4Z" fill="#D08C84"/>
<path d="M290.529 1526.4C286.931 1526.4 283.333 1530 283.333 1533.6C283.333 1537.2 286.931 1540.79 290.529 1540.79C294.127 1540.79 297.725 1537.2 297.725 1533.6C297.725 1529.1 295.026 1526.4 290.529 1526.4Z" fill="#D08C84"/>
<path d="M370.582 1526.4C366.984 1526.4 363.386 1530 363.386 1533.6C363.386 1537.2 366.984 1540.79 370.582 1540.79C374.18 1540.79 377.778 1537.2 377.778 1533.6C377.778 1529.1 375.079 1526.4 370.582 1526.4Z" fill="#D08C84"/>
<path d="M451.534 1526.4C447.937 1526.4 444.339 1530 444.339 1533.6C444.339 1537.2 447.937 1540.79 451.534 1540.79C455.132 1540.79 458.73 1537.2 458.73 1533.6C457.831 1529.1 455.132 1526.4 451.534 1526.4Z" fill="#D08C84"/>
<path d="M531.588 1526.4C527.99 1526.4 524.392 1530 524.392 1533.6C524.392 1537.2 527.99 1540.79 531.588 1540.79C535.186 1540.79 538.783 1537.2 538.783 1533.6C538.783 1529.1 535.186 1526.4 531.588 1526.4Z" fill="#D08C84"/>
<path d="M611.64 1205.29C608.042 1205.29 604.444 1208.89 604.444 1212.49C604.444 1216.08 608.042 1219.68 611.64 1219.68C615.238 1219.68 618.835 1216.08 618.835 1212.49C618.835 1208.89 615.238 1205.29 611.64 1205.29Z" fill="#D08C84"/>
<path d="M691.692 1205.29C688.095 1205.29 684.497 1208.89 684.497 1212.49C684.497 1216.08 688.095 1219.68 691.692 1219.68C695.29 1219.68 698.888 1216.08 698.888 1212.49C698.888 1208.89 695.29 1205.29 691.692 1205.29Z" fill="#D08C84"/>
<path d="M771.746 1205.29C768.148 1205.29 764.55 1208.89 764.55 1212.49C764.55 1216.08 768.148 1219.68 771.746 1219.68C775.344 1219.68 778.942 1216.08 778.942 1212.49C778.942 1208.89 776.243 1205.29 771.746 1205.29Z" fill="#D08C84"/>
<path d="M851.799 1205.29C848.201 1205.29 844.603 1208.89 844.603 1212.49C844.603 1216.08 848.201 1219.68 851.799 1219.68C855.397 1219.68 858.995 1216.08 858.995 1212.49C858.995 1208.89 856.296 1205.29 851.799 1205.29Z" fill="#D08C84"/>
<path d="M932.751 1219.68C936.725 1219.68 939.947 1216.46 939.947 1212.49C939.947 1208.51 936.725 1205.29 932.751 1205.29C928.777 1205.29 925.555 1208.51 925.555 1212.49C925.555 1216.46 928.777 1219.68 932.751 1219.68Z" fill="#D08C84"/>
<path d="M1012.8 1205.29C1009.21 1205.29 1005.61 1208.89 1005.61 1212.49C1005.61 1216.08 1009.21 1219.68 1012.8 1219.68C1016.4 1219.68 1020 1216.08 1020 1212.49C1020 1208.89 1016.4 1205.29 1012.8 1205.29Z" fill="#D08C84"/>
<path d="M568.466 1285.34C564.868 1285.34 561.27 1288.94 561.27 1292.54C561.27 1296.14 564.868 1299.74 568.466 1299.74C572.064 1299.74 575.662 1296.14 575.662 1292.54C575.662 1288.94 572.064 1285.34 568.466 1285.34Z" fill="#D08C84"/>
<path d="M648.519 1285.34C644.921 1285.34 641.323 1288.94 641.323 1292.54C641.323 1296.14 644.921 1299.74 648.519 1299.74C652.116 1299.74 655.714 1296.14 655.714 1292.54C655.714 1288.94 653.016 1285.34 648.519 1285.34Z" fill="#D08C84"/>
<path d="M728.571 1285.34C724.973 1285.34 721.375 1288.94 721.375 1292.54C721.375 1296.14 724.973 1299.74 728.571 1299.74C732.169 1299.74 735.767 1296.14 735.767 1292.54C735.767 1288.94 733.068 1285.34 728.571 1285.34Z" fill="#D08C84"/>
<path d="M809.523 1285.34C805.925 1285.34 802.327 1288.94 802.327 1292.54C802.327 1296.14 805.925 1299.74 809.523 1299.74C813.121 1299.74 816.719 1296.14 816.719 1292.54C816.719 1288.94 813.121 1285.34 809.523 1285.34Z" fill="#D08C84"/>
<path d="M889.576 1285.34C885.978 1285.34 882.38 1288.94 882.38 1292.54C882.38 1296.14 885.978 1299.74 889.576 1299.74C893.174 1299.74 896.772 1296.14 896.772 1292.54C896.772 1288.94 893.174 1285.34 889.576 1285.34Z" fill="#D08C84"/>
<path d="M969.629 1285.34C966.031 1285.34 962.433 1288.94 962.433 1292.54C962.433 1296.14 966.031 1299.74 969.629 1299.74C973.227 1299.74 976.825 1296.14 976.825 1292.54C976.825 1288.94 973.227 1285.34 969.629 1285.34Z" fill="#D08C84"/>
<path d="M568.466 1446.35C564.868 1446.35 561.27 1449.95 561.27 1453.54C561.27 1457.14 564.868 1460.74 568.466 1460.74C572.064 1460.74 575.662 1457.14 575.662 1453.54C575.662 1449.95 572.064 1446.35 568.466 1446.35Z" fill="#D08C84"/>
<path d="M648.519 1446.35C644.921 1446.35 641.323 1449.95 641.323 1453.54C641.323 1457.14 644.921 1460.74 648.519 1460.74C652.116 1460.74 655.714 1457.14 655.714 1453.54C655.714 1449.95 653.016 1446.35 648.519 1446.35Z" fill="#D08C84"/>
<path d="M728.571 1446.35C724.973 1446.35 721.375 1449.95 721.375 1453.54C721.375 1457.14 724.973 1460.74 728.571 1460.74C732.169 1460.74 735.767 1457.14 735.767 1453.54C735.767 1449.95 733.068 1446.35 728.571 1446.35Z" fill="#D08C84"/>
<path d="M809.523 1446.35C805.925 1446.35 802.327 1449.95 802.327 1453.54C802.327 1457.14 805.925 1460.74 809.523 1460.74C813.121 1460.74 816.719 1457.14 816.719 1453.54C816.719 1449.95 813.121 1446.35 809.523 1446.35Z" fill="#D08C84"/>
<path d="M889.576 1446.35C885.978 1446.35 882.38 1449.95 882.38 1453.54C882.38 1457.14 885.978 1460.74 889.576 1460.74C893.174 1460.74 896.772 1457.14 896.772 1453.54C896.772 1449.95 893.174 1446.35 889.576 1446.35Z" fill="#D08C84"/>
<path d="M969.629 1446.35C966.031 1446.35 962.433 1449.95 962.433 1453.54C962.433 1457.14 966.031 1460.74 969.629 1460.74C973.227 1460.74 976.825 1457.14 976.825 1453.54C976.825 1449.95 973.227 1446.35 969.629 1446.35Z" fill="#D08C84"/>
<path d="M611.64 1365.4C608.042 1365.4 604.444 1368.99 604.444 1372.59C604.444 1376.19 608.042 1379.79 611.64 1379.79C615.238 1379.79 618.835 1376.19 618.835 1372.59C618.835 1368.99 615.238 1365.4 611.64 1365.4Z" fill="#D08C84"/>
<path d="M691.692 1365.4C688.095 1365.4 684.497 1368.99 684.497 1372.59C684.497 1376.19 688.095 1379.79 691.692 1379.79C695.29 1379.79 698.888 1376.19 698.888 1372.59C698.888 1368.99 695.29 1365.4 691.692 1365.4Z" fill="#D08C84"/>
<path d="M771.746 1365.4C768.148 1365.4 764.55 1368.99 764.55 1372.59C764.55 1376.19 768.148 1379.79 771.746 1379.79C775.344 1379.79 778.942 1376.19 778.942 1372.59C778.942 1368.99 776.243 1365.4 771.746 1365.4Z" fill="#D08C84"/>
<path d="M851.799 1365.4C848.201 1365.4 844.603 1368.99 844.603 1372.59C844.603 1376.19 848.201 1379.79 851.799 1379.79C855.397 1379.79 858.995 1376.19 858.995 1372.59C858.995 1368.99 856.296 1365.4 851.799 1365.4Z" fill="#D08C84"/>
<path d="M932.751 1365.4C929.153 1365.4 925.555 1368.99 925.555 1372.59C925.555 1376.19 929.153 1379.79 932.751 1379.79C936.349 1379.79 939.947 1376.19 939.947 1372.59C939.047 1368.99 936.349 1365.4 932.751 1365.4Z" fill="#D08C84"/>
<path d="M1012.8 1365.4C1009.21 1365.4 1005.61 1368.99 1005.61 1372.59C1005.61 1376.19 1009.21 1379.79 1012.8 1379.79C1016.4 1379.79 1020 1376.19 1020 1372.59C1020 1368.99 1016.4 1365.4 1012.8 1365.4Z" fill="#D08C84"/>
<path d="M611.64 1526.4C608.042 1526.4 604.444 1530 604.444 1533.6C604.444 1537.2 608.042 1540.79 611.64 1540.79C615.238 1540.79 618.835 1537.2 618.835 1533.6C618.835 1529.1 615.238 1526.4 611.64 1526.4Z" fill="#D08C84"/>
<path d="M691.692 1526.4C688.095 1526.4 684.497 1530 684.497 1533.6C684.497 1537.2 688.095 1540.79 691.692 1540.79C695.29 1540.79 698.888 1537.2 698.888 1533.6C698.888 1529.1 695.29 1526.4 691.692 1526.4Z" fill="#D08C84"/>
<path d="M771.746 1526.4C768.148 1526.4 764.55 1530 764.55 1533.6C764.55 1537.2 768.148 1540.79 771.746 1540.79C775.344 1540.79 778.942 1537.2 778.942 1533.6C778.942 1529.1 776.243 1526.4 771.746 1526.4Z" fill="#D08C84"/>
<path d="M851.799 1526.4C848.201 1526.4 844.603 1530 844.603 1533.6C844.603 1537.2 848.201 1540.79 851.799 1540.79C855.397 1540.79 858.995 1537.2 858.995 1533.6C858.995 1529.1 856.296 1526.4 851.799 1526.4Z" fill="#D08C84"/>
<path d="M932.751 1526.4C929.153 1526.4 925.555 1530 925.555 1533.6C925.555 1537.2 929.153 1540.79 932.751 1540.79C936.349 1540.79 939.947 1537.2 939.947 1533.6C939.047 1529.1 936.349 1526.4 932.751 1526.4Z" fill="#D08C84"/>
<path d="M1012.8 1526.4C1009.21 1526.4 1005.61 1530 1005.61 1533.6C1005.61 1537.2 1009.21 1540.79 1012.8 1540.79C1016.4 1540.79 1020 1537.2 1020 1533.6C1020 1529.1 1016.4 1526.4 1012.8 1526.4Z" fill="#D08C84"/>
<path d="M50.3708 1677.51C46.773 1677.51 43.175 1681.11 43.175 1684.71C43.175 1688.31 46.773 1691.9 50.3708 1691.9C53.9687 1691.9 57.5665 1688.31 57.5665 1684.71C57.5665 1681.11 53.9687 1677.51 50.3708 1677.51Z" fill="#D08C84"/>
<path d="M130.423 1677.51C126.825 1677.51 123.227 1681.11 123.227 1684.71C123.227 1688.31 126.825 1691.9 130.423 1691.9C134.021 1691.9 137.619 1688.31 137.619 1684.71C137.619 1681.11 134.021 1677.51 130.423 1677.51Z" fill="#D08C84"/>
<path d="M210.476 1677.51C206.878 1677.51 203.28 1681.11 203.28 1684.71C203.28 1688.31 206.878 1691.9 210.476 1691.9C214.074 1691.9 217.672 1688.31 217.672 1684.71C217.672 1681.11 214.074 1677.51 210.476 1677.51Z" fill="#D08C84"/>
<path d="M290.529 1677.51C286.931 1677.51 283.333 1681.11 283.333 1684.71C283.333 1688.31 286.931 1691.9 290.529 1691.9C294.127 1691.9 297.725 1688.31 297.725 1684.71C297.725 1681.11 295.026 1677.51 290.529 1677.51Z" fill="#D08C84"/>
<path d="M370.582 1677.51C366.984 1677.51 363.386 1681.11 363.386 1684.71C363.386 1688.31 366.984 1691.9 370.582 1691.9C374.18 1691.9 377.778 1688.31 377.778 1684.71C377.778 1681.11 375.079 1677.51 370.582 1677.51Z" fill="#D08C84"/>
<path d="M451.534 1677.51C447.937 1677.51 444.339 1681.11 444.339 1684.71C444.339 1688.31 447.937 1691.9 451.534 1691.9C455.132 1691.9 458.73 1688.31 458.73 1684.71C457.831 1681.11 455.132 1677.51 451.534 1677.51Z" fill="#D08C84"/>
<path d="M531.588 1677.51C527.99 1677.51 524.392 1681.11 524.392 1684.71C524.392 1688.31 527.99 1691.9 531.588 1691.9C535.186 1691.9 538.783 1688.31 538.783 1684.71C538.783 1681.11 535.186 1677.51 531.588 1677.51Z" fill="#D08C84"/>
<path d="M7.19579 1610.95C11.1699 1610.95 14.3916 1607.73 14.3916 1603.76C14.3916 1599.78 11.1699 1596.56 7.19579 1596.56C3.22168 1596.56 0 1599.78 0 1603.76C0 1607.73 3.22168 1610.95 7.19579 1610.95Z" fill="#D08C84"/>
<path d="M87.249 1596.56C83.6511 1596.56 80.0532 1600.16 80.0532 1603.76C80.0532 1607.35 83.6511 1610.95 87.249 1610.95C90.8469 1610.95 94.4448 1607.35 94.4448 1603.76C94.4448 1600.16 90.8469 1596.56 87.249 1596.56Z" fill="#D08C84"/>
<path d="M167.302 1596.56C163.704 1596.56 160.106 1600.16 160.106 1603.76C160.106 1607.35 163.704 1610.95 167.302 1610.95C170.9 1610.95 174.498 1607.35 174.498 1603.76C174.498 1600.16 171.799 1596.56 167.302 1596.56Z" fill="#D08C84"/>
<path d="M247.354 1596.56C243.756 1596.56 240.158 1600.16 240.158 1603.76C240.158 1607.35 243.756 1610.95 247.354 1610.95C250.952 1610.95 254.55 1607.35 254.55 1603.76C254.55 1600.16 251.851 1596.56 247.354 1596.56Z" fill="#D08C84"/>
<path d="M328.306 1596.56C324.708 1596.56 321.11 1600.16 321.11 1603.76C321.11 1607.35 324.708 1610.95 328.306 1610.95C331.904 1610.95 335.502 1607.35 335.502 1603.76C334.603 1600.16 331.904 1596.56 328.306 1596.56Z" fill="#D08C84"/>
<path d="M408.359 1610.95C412.333 1610.95 415.555 1607.73 415.555 1603.76C415.555 1599.78 412.333 1596.56 408.359 1596.56C404.385 1596.56 401.164 1599.78 401.164 1603.76C401.164 1607.73 404.385 1610.95 408.359 1610.95Z" fill="#D08C84"/>
<path d="M488.413 1610.95C492.387 1610.95 495.608 1607.73 495.608 1603.76C495.608 1599.78 492.387 1596.56 488.413 1596.56C484.438 1596.56 481.217 1599.78 481.217 1603.76C481.217 1607.73 484.438 1610.95 488.413 1610.95Z" fill="#D08C84"/>
<path d="M7.19579 1757.57C3.59791 1757.57 0 1761.16 0 1764.76C0 1768.36 3.59791 1771.96 7.19579 1771.96C10.7937 1771.96 14.3916 1768.36 14.3916 1764.76C14.3916 1760.26 10.7937 1757.57 7.19579 1757.57Z" fill="#D08C84"/>
<path d="M87.249 1757.57C83.6511 1757.57 80.0532 1761.16 80.0532 1764.76C80.0532 1768.36 83.6511 1771.96 87.249 1771.96C90.8469 1771.96 94.4448 1768.36 94.4448 1764.76C94.4448 1760.26 90.8469 1757.57 87.249 1757.57Z" fill="#D08C84"/>
<path d="M167.302 1757.57C163.704 1757.57 160.106 1761.16 160.106 1764.76C160.106 1768.36 163.704 1771.96 167.302 1771.96C170.9 1771.96 174.498 1768.36 174.498 1764.76C174.498 1760.26 171.799 1757.57 167.302 1757.57Z" fill="#D08C84"/>
<path d="M247.354 1757.57C243.756 1757.57 240.158 1761.16 240.158 1764.76C240.158 1768.36 243.756 1771.96 247.354 1771.96C250.952 1771.96 254.55 1768.36 254.55 1764.76C254.55 1760.26 251.851 1757.57 247.354 1757.57Z" fill="#D08C84"/>
<path d="M328.306 1757.57C324.708 1757.57 321.11 1761.16 321.11 1764.76C321.11 1768.36 324.708 1771.96 328.306 1771.96C331.904 1771.96 335.502 1768.36 335.502 1764.76C334.603 1760.26 331.904 1757.57 328.306 1757.57Z" fill="#D08C84"/>
<path d="M408.359 1757.57C404.761 1757.57 401.164 1761.16 401.164 1764.76C401.164 1768.36 404.761 1771.96 408.359 1771.96C411.957 1771.96 415.555 1768.36 415.555 1764.76C415.555 1760.26 411.957 1757.57 408.359 1757.57Z" fill="#D08C84"/>
<path d="M488.413 1757.57C484.815 1757.57 481.217 1761.16 481.217 1764.76C481.217 1768.36 484.815 1771.96 488.413 1771.96C492.01 1771.96 495.608 1768.36 495.608 1764.76C495.608 1760.26 492.01 1757.57 488.413 1757.57Z" fill="#D08C84"/>
<path d="M7.19579 1918.57C3.59791 1918.57 0 1922.17 0 1925.77C0 1929.36 3.59791 1932.96 7.19579 1932.96C10.7937 1932.96 14.3916 1929.36 14.3916 1925.77C14.3916 1922.17 10.7937 1918.57 7.19579 1918.57Z" fill="#D08C84"/>
<path d="M87.249 1918.57C83.6511 1918.57 80.0532 1922.17 80.0532 1925.77C80.0532 1929.36 83.6511 1932.96 87.249 1932.96C90.8469 1932.96 94.4448 1929.36 94.4448 1925.77C94.4448 1922.17 90.8469 1918.57 87.249 1918.57Z" fill="#D08C84"/>
<path d="M167.302 1918.57C163.704 1918.57 160.106 1922.17 160.106 1925.77C160.106 1929.36 163.704 1932.96 167.302 1932.96C170.9 1932.96 174.498 1929.36 174.498 1925.77C174.498 1922.17 171.799 1918.57 167.302 1918.57Z" fill="#D08C84"/>
<path d="M247.354 1918.57C243.756 1918.57 240.158 1922.17 240.158 1925.77C240.158 1929.36 243.756 1932.96 247.354 1932.96C250.952 1932.96 254.55 1929.36 254.55 1925.77C254.55 1922.17 251.851 1918.57 247.354 1918.57Z" fill="#D08C84"/>
<path d="M328.306 1918.57C324.708 1918.57 321.11 1922.17 321.11 1925.77C321.11 1929.36 324.708 1932.96 328.306 1932.96C331.904 1932.96 335.502 1929.36 335.502 1925.77C335.502 1922.17 331.904 1918.57 328.306 1918.57Z" fill="#D08C84"/>
<path d="M408.359 1918.57C404.761 1918.57 401.164 1922.17 401.164 1925.77C401.164 1929.36 404.761 1932.96 408.359 1932.96C411.957 1932.96 415.555 1929.36 415.555 1925.77C415.555 1922.17 411.957 1918.57 408.359 1918.57Z" fill="#D08C84"/>
<path d="M488.413 1918.57C484.815 1918.57 481.217 1922.17 481.217 1925.77C481.217 1929.36 484.815 1932.96 488.413 1932.96C492.01 1932.96 495.608 1929.36 495.608 1925.77C495.608 1922.17 492.01 1918.57 488.413 1918.57Z" fill="#D08C84"/>
<path d="M7.19579 2079.58C3.59791 2079.58 0 2083.17 0 2086.77V2087.67V2088.57C0 2092.17 3.59791 2095.77 7.19579 2095.77C10.7937 2095.77 14.3916 2092.17 14.3916 2088.57V2087.67V2086.77C14.3916 2082.27 10.7937 2079.58 7.19579 2079.58Z" fill="#D08C84"/>
<path d="M87.249 2079.58C83.6511 2079.58 80.0532 2083.17 80.0532 2086.77V2087.67V2088.57C80.0532 2092.17 83.6511 2095.77 87.249 2095.77C90.8469 2095.77 94.4448 2092.17 94.4448 2088.57V2087.67V2086.77C94.4448 2082.27 90.8469 2079.58 87.249 2079.58Z" fill="#D08C84"/>
<path d="M167.302 2079.58C163.704 2079.58 160.106 2083.17 160.106 2086.77V2087.67V2088.57C160.106 2092.17 163.704 2095.77 167.302 2095.77C170.9 2095.77 174.498 2092.17 174.498 2088.57V2087.67V2086.77C174.498 2082.27 171.799 2079.58 167.302 2079.58Z" fill="#D08C84"/>
<path d="M247.354 2079.58C243.756 2079.58 240.158 2083.17 240.158 2086.77V2087.67V2088.57C240.158 2092.17 243.756 2095.77 247.354 2095.77C250.952 2095.77 254.55 2092.17 254.55 2088.57V2087.67V2086.77C254.55 2082.27 251.851 2079.58 247.354 2079.58Z" fill="#D08C84"/>
<path d="M328.306 2079.58C324.708 2079.58 321.11 2083.17 321.11 2086.77V2087.67V2088.57C321.11 2092.17 324.708 2095.77 328.306 2095.77C331.904 2095.77 335.502 2092.17 335.502 2088.57V2087.67V2086.77C334.603 2082.27 331.904 2079.58 328.306 2079.58Z" fill="#D08C84"/>
<path d="M408.359 2079.58C404.761 2079.58 401.164 2083.17 401.164 2086.77V2087.67V2088.57C401.164 2092.17 404.761 2095.77 408.359 2095.77C411.957 2095.77 415.555 2092.17 415.555 2088.57V2087.67V2086.77C415.555 2082.27 411.957 2079.58 408.359 2079.58Z" fill="#D08C84"/>
<path d="M488.413 2079.58C484.815 2079.58 481.217 2083.17 481.217 2086.77V2087.67V2088.57C481.217 2092.17 484.815 2095.77 488.413 2095.77C492.01 2095.77 495.608 2092.17 495.608 2088.57V2087.67V2086.77C495.608 2082.27 492.01 2079.58 488.413 2079.58Z" fill="#D08C84"/>
<path d="M50.3708 1837.62C46.773 1837.62 43.175 1841.22 43.175 1844.81C43.175 1848.41 46.773 1852.01 50.3708 1852.01C53.9687 1852.01 57.5665 1848.41 57.5665 1844.81C57.5665 1841.22 53.9687 1837.62 50.3708 1837.62Z" fill="#D08C84"/>
<path d="M130.423 1837.62C126.825 1837.62 123.227 1841.22 123.227 1844.81C123.227 1848.41 126.825 1852.01 130.423 1852.01C134.021 1852.01 137.619 1848.41 137.619 1844.81C137.619 1841.22 134.021 1837.62 130.423 1837.62Z" fill="#D08C84"/>
<path d="M210.476 1837.62C206.878 1837.62 203.28 1841.22 203.28 1844.81C203.28 1848.41 206.878 1852.01 210.476 1852.01C214.074 1852.01 217.672 1848.41 217.672 1844.81C217.672 1841.22 214.074 1837.62 210.476 1837.62Z" fill="#D08C84"/>
<path d="M290.529 1837.62C286.931 1837.62 283.333 1841.22 283.333 1844.81C283.333 1848.41 286.931 1852.01 290.529 1852.01C294.127 1852.01 297.725 1848.41 297.725 1844.81C297.725 1841.22 295.026 1837.62 290.529 1837.62Z" fill="#D08C84"/>
<path d="M370.582 1837.62C366.984 1837.62 363.386 1841.22 363.386 1844.81C363.386 1848.41 366.984 1852.01 370.582 1852.01C374.18 1852.01 377.778 1848.41 377.778 1844.81C377.778 1841.22 375.079 1837.62 370.582 1837.62Z" fill="#D08C84"/>
<path d="M451.534 1837.62C447.937 1837.62 444.339 1841.22 444.339 1844.81C444.339 1848.41 447.937 1852.01 451.534 1852.01C455.132 1852.01 458.73 1848.41 458.73 1844.81C457.831 1841.22 455.132 1837.62 451.534 1837.62Z" fill="#D08C84"/>
<path d="M531.588 1837.62C527.99 1837.62 524.392 1841.22 524.392 1844.81C524.392 1848.41 527.99 1852.01 531.588 1852.01C535.186 1852.01 538.783 1848.41 538.783 1844.81C538.783 1841.22 535.186 1837.62 531.588 1837.62Z" fill="#D08C84"/>
<path d="M50.3708 1998.62C46.773 1998.62 43.175 2002.22 43.175 2005.82C43.175 2009.42 46.773 2013.02 50.3708 2013.02C53.9687 2013.02 57.5665 2009.42 57.5665 2005.82C57.5665 2001.32 53.9687 1998.62 50.3708 1998.62Z" fill="#D08C84"/>
<path d="M130.423 1998.62C126.825 1998.62 123.227 2002.22 123.227 2005.82C123.227 2009.42 126.825 2013.02 130.423 2013.02C134.021 2013.02 137.619 2009.42 137.619 2005.82C137.619 2001.32 134.021 1998.62 130.423 1998.62Z" fill="#D08C84"/>
<path d="M210.476 1998.62C206.878 1998.62 203.28 2002.22 203.28 2005.82C203.28 2009.42 206.878 2013.02 210.476 2013.02C214.074 2013.02 217.672 2009.42 217.672 2005.82C217.672 2001.32 214.074 1998.62 210.476 1998.62Z" fill="#D08C84"/>
<path d="M290.529 1998.62C286.931 1998.62 283.333 2002.22 283.333 2005.82C283.333 2009.42 286.931 2013.02 290.529 2013.02C294.127 2013.02 297.725 2009.42 297.725 2005.82C297.725 2001.32 295.026 1998.62 290.529 1998.62Z" fill="#D08C84"/>
<path d="M370.582 1998.62C366.984 1998.62 363.386 2002.22 363.386 2005.82C363.386 2009.42 366.984 2013.02 370.582 2013.02C374.18 2013.02 377.778 2009.42 377.778 2005.82C377.778 2001.32 375.079 1998.62 370.582 1998.62Z" fill="#D08C84"/>
<path d="M451.534 1998.62C447.937 1998.62 444.339 2002.22 444.339 2005.82C444.339 2009.42 447.937 2013.02 451.534 2013.02C455.132 2013.02 458.73 2009.42 458.73 2005.82C457.831 2001.32 455.132 1998.62 451.534 1998.62Z" fill="#D08C84"/>
<path d="M531.588 1998.62C527.99 1998.62 524.392 2002.22 524.392 2005.82C524.392 2009.42 527.99 2013.02 531.588 2013.02C535.186 2013.02 538.783 2009.42 538.783 2005.82C538.783 2001.32 535.186 1998.62 531.588 1998.62Z" fill="#D08C84"/>
<path d="M611.64 1677.51C608.042 1677.51 604.444 1681.11 604.444 1684.71C604.444 1688.31 608.042 1691.9 611.64 1691.9C615.238 1691.9 618.835 1688.31 618.835 1684.71C618.835 1681.11 615.238 1677.51 611.64 1677.51Z" fill="#D08C84"/>
<path d="M691.692 1677.51C688.095 1677.51 684.497 1681.11 684.497 1684.71C684.497 1688.31 688.095 1691.9 691.692 1691.9C695.29 1691.9 698.888 1688.31 698.888 1684.71C698.888 1681.11 695.29 1677.51 691.692 1677.51Z" fill="#D08C84"/>
<path d="M771.746 1677.51C768.148 1677.51 764.55 1681.11 764.55 1684.71C764.55 1688.31 768.148 1691.9 771.746 1691.9C775.344 1691.9 778.942 1688.31 778.942 1684.71C778.942 1681.11 776.243 1677.51 771.746 1677.51Z" fill="#D08C84"/>
<path d="M851.799 1677.51C848.201 1677.51 844.603 1681.11 844.603 1684.71C844.603 1688.31 848.201 1691.9 851.799 1691.9C855.397 1691.9 858.995 1688.31 858.995 1684.71C858.995 1681.11 856.296 1677.51 851.799 1677.51Z" fill="#D08C84"/>
<path d="M932.751 1677.51C929.153 1677.51 925.555 1681.11 925.555 1684.71C925.555 1688.31 929.153 1691.9 932.751 1691.9C936.349 1691.9 939.947 1688.31 939.947 1684.71C939.047 1681.11 936.349 1677.51 932.751 1677.51Z" fill="#D08C84"/>
<path d="M1012.8 1677.51C1009.21 1677.51 1005.61 1681.11 1005.61 1684.71C1005.61 1688.31 1009.21 1691.9 1012.8 1691.9C1016.4 1691.9 1020 1688.31 1020 1684.71C1020 1681.11 1016.4 1677.51 1012.8 1677.51Z" fill="#D08C84"/>
<path d="M568.466 1596.56C564.868 1596.56 561.27 1600.16 561.27 1603.76C561.27 1607.35 564.868 1610.95 568.466 1610.95C572.064 1610.95 575.662 1607.35 575.662 1603.76C575.662 1600.16 572.064 1596.56 568.466 1596.56Z" fill="#D08C84"/>
<path d="M648.519 1596.56C644.921 1596.56 641.323 1600.16 641.323 1603.76C641.323 1607.35 644.921 1610.95 648.519 1610.95C652.116 1610.95 655.714 1607.35 655.714 1603.76C655.714 1600.16 653.016 1596.56 648.519 1596.56Z" fill="#D08C84"/>
<path d="M728.571 1596.56C724.973 1596.56 721.375 1600.16 721.375 1603.76C721.375 1607.35 724.973 1610.95 728.571 1610.95C732.169 1610.95 735.767 1607.35 735.767 1603.76C735.767 1600.16 733.068 1596.56 728.571 1596.56Z" fill="#D08C84"/>
<path d="M809.523 1596.56C805.925 1596.56 802.327 1600.16 802.327 1603.76C802.327 1607.35 805.925 1610.95 809.523 1610.95C813.121 1610.95 816.719 1607.35 816.719 1603.76C815.819 1600.16 813.121 1596.56 809.523 1596.56Z" fill="#D08C84"/>
<path d="M889.576 1610.95C893.55 1610.95 896.772 1607.73 896.772 1603.76C896.772 1599.78 893.55 1596.56 889.576 1596.56C885.602 1596.56 882.38 1599.78 882.38 1603.76C882.38 1607.73 885.602 1610.95 889.576 1610.95Z" fill="#D08C84"/>
<path d="M969.629 1610.95C973.603 1610.95 976.825 1607.73 976.825 1603.76C976.825 1599.78 973.603 1596.56 969.629 1596.56C965.655 1596.56 962.433 1599.78 962.433 1603.76C962.433 1607.73 965.655 1610.95 969.629 1610.95Z" fill="#D08C84"/>
<path d="M568.466 1757.57C564.868 1757.57 561.27 1761.16 561.27 1764.76C561.27 1768.36 564.868 1771.96 568.466 1771.96C572.064 1771.96 575.662 1768.36 575.662 1764.76C575.662 1760.26 572.064 1757.57 568.466 1757.57Z" fill="#D08C84"/>
<path d="M648.519 1757.57C644.921 1757.57 641.323 1761.16 641.323 1764.76C641.323 1768.36 644.921 1771.96 648.519 1771.96C652.116 1771.96 655.714 1768.36 655.714 1764.76C655.714 1760.26 653.016 1757.57 648.519 1757.57Z" fill="#D08C84"/>
<path d="M728.571 1757.57C724.973 1757.57 721.375 1761.16 721.375 1764.76C721.375 1768.36 724.973 1771.96 728.571 1771.96C732.169 1771.96 735.767 1768.36 735.767 1764.76C735.767 1760.26 733.068 1757.57 728.571 1757.57Z" fill="#D08C84"/>
<path d="M809.523 1757.57C805.925 1757.57 802.327 1761.16 802.327 1764.76C802.327 1768.36 805.925 1771.96 809.523 1771.96C813.121 1771.96 816.719 1768.36 816.719 1764.76C815.819 1760.26 813.121 1757.57 809.523 1757.57Z" fill="#D08C84"/>
<path d="M889.576 1757.57C885.978 1757.57 882.38 1761.16 882.38 1764.76C882.38 1768.36 885.978 1771.96 889.576 1771.96C893.174 1771.96 896.772 1768.36 896.772 1764.76C896.772 1760.26 893.174 1757.57 889.576 1757.57Z" fill="#D08C84"/>
<path d="M969.629 1757.57C966.031 1757.57 962.433 1761.16 962.433 1764.76C962.433 1768.36 966.031 1771.96 969.629 1771.96C973.227 1771.96 976.825 1768.36 976.825 1764.76C976.825 1760.26 973.227 1757.57 969.629 1757.57Z" fill="#D08C84"/>
<path d="M568.466 1918.57C564.868 1918.57 561.27 1922.17 561.27 1925.77C561.27 1929.36 564.868 1932.96 568.466 1932.96C572.064 1932.96 575.662 1929.36 575.662 1925.77C575.662 1922.17 572.064 1918.57 568.466 1918.57Z" fill="#D08C84"/>
<path d="M648.519 1918.57C644.921 1918.57 641.323 1922.17 641.323 1925.77C641.323 1929.36 644.921 1932.96 648.519 1932.96C652.116 1932.96 655.714 1929.36 655.714 1925.77C655.714 1922.17 653.016 1918.57 648.519 1918.57Z" fill="#D08C84"/>
<path d="M728.571 1918.57C724.973 1918.57 721.375 1922.17 721.375 1925.77C721.375 1929.36 724.973 1932.96 728.571 1932.96C732.169 1932.96 735.767 1929.36 735.767 1925.77C735.767 1922.17 733.068 1918.57 728.571 1918.57Z" fill="#D08C84"/>
<path d="M809.523 1918.57C805.925 1918.57 802.327 1922.17 802.327 1925.77C802.327 1929.36 805.925 1932.96 809.523 1932.96C813.121 1932.96 816.719 1929.36 816.719 1925.77C816.719 1922.17 813.121 1918.57 809.523 1918.57Z" fill="#D08C84"/>
<path d="M889.576 1918.57C885.978 1918.57 882.38 1922.17 882.38 1925.77C882.38 1929.36 885.978 1932.96 889.576 1932.96C893.174 1932.96 896.772 1929.36 896.772 1925.77C896.772 1922.17 893.174 1918.57 889.576 1918.57Z" fill="#D08C84"/>
<path d="M969.629 1918.57C966.031 1918.57 962.433 1922.17 962.433 1925.77C962.433 1929.36 966.031 1932.96 969.629 1932.96C973.227 1932.96 976.825 1929.36 976.825 1925.77C976.825 1922.17 973.227 1918.57 969.629 1918.57Z" fill="#D08C84"/>
<path d="M568.466 2079.58C564.868 2079.58 561.27 2083.17 561.27 2086.77V2087.67V2088.57C561.27 2092.17 564.868 2095.77 568.466 2095.77C572.064 2095.77 575.662 2092.17 575.662 2088.57V2087.67V2086.77C575.662 2082.27 572.064 2079.58 568.466 2079.58Z" fill="#D08C84"/>
<path d="M648.519 2079.58C644.921 2079.58 641.323 2083.17 641.323 2086.77V2087.67V2088.57C641.323 2092.17 644.921 2095.77 648.519 2095.77C652.116 2095.77 655.714 2092.17 655.714 2088.57V2087.67V2086.77C655.714 2082.27 653.016 2079.58 648.519 2079.58Z" fill="#D08C84"/>
<path d="M728.571 2079.58C724.973 2079.58 721.375 2083.17 721.375 2086.77V2087.67V2088.57C721.375 2092.17 724.973 2095.77 728.571 2095.77C732.169 2095.77 735.767 2092.17 735.767 2088.57V2087.67V2086.77C735.767 2082.27 733.068 2079.58 728.571 2079.58Z" fill="#D08C84"/>
<path d="M809.523 2079.58C805.925 2079.58 802.327 2083.17 802.327 2086.77V2087.67V2088.57C802.327 2092.17 805.925 2095.77 809.523 2095.77C813.121 2095.77 816.719 2092.17 816.719 2088.57V2087.67V2086.77C815.819 2082.27 813.121 2079.58 809.523 2079.58Z" fill="#D08C84"/>
<path d="M889.576 2079.58C885.978 2079.58 882.38 2083.17 882.38 2086.77V2087.67V2088.57C882.38 2092.17 885.978 2095.77 889.576 2095.77C893.174 2095.77 896.772 2092.17 896.772 2088.57V2087.67V2086.77C896.772 2082.27 893.174 2079.58 889.576 2079.58Z" fill="#D08C84"/>
<path d="M969.629 2079.58C966.031 2079.58 962.433 2083.17 962.433 2086.77V2087.67V2088.57C962.433 2092.17 966.031 2095.77 969.629 2095.77C973.227 2095.77 976.825 2092.17 976.825 2088.57V2087.67V2086.77C976.825 2082.27 973.227 2079.58 969.629 2079.58Z" fill="#D08C84"/>
<path d="M611.64 1837.62C608.042 1837.62 604.444 1841.22 604.444 1844.81C604.444 1848.41 608.042 1852.01 611.64 1852.01C615.238 1852.01 618.835 1848.41 618.835 1844.81C618.835 1841.22 615.238 1837.62 611.64 1837.62Z" fill="#D08C84"/>
<path d="M691.692 1837.62C688.095 1837.62 684.497 1841.22 684.497 1844.81C684.497 1848.41 688.095 1852.01 691.692 1852.01C695.29 1852.01 698.888 1848.41 698.888 1844.81C698.888 1841.22 695.29 1837.62 691.692 1837.62Z" fill="#D08C84"/>
<path d="M771.746 1837.62C768.148 1837.62 764.55 1841.22 764.55 1844.81C764.55 1848.41 768.148 1852.01 771.746 1852.01C775.344 1852.01 778.942 1848.41 778.942 1844.81C778.942 1841.22 776.243 1837.62 771.746 1837.62Z" fill="#D08C84"/>
<path d="M851.799 1837.62C848.201 1837.62 844.603 1841.22 844.603 1844.81C844.603 1848.41 848.201 1852.01 851.799 1852.01C855.397 1852.01 858.995 1848.41 858.995 1844.81C858.995 1841.22 856.296 1837.62 851.799 1837.62Z" fill="#D08C84"/>
<path d="M932.751 1837.62C929.153 1837.62 925.555 1841.22 925.555 1844.81C925.555 1848.41 929.153 1852.01 932.751 1852.01C936.349 1852.01 939.947 1848.41 939.947 1844.81C939.047 1841.22 936.349 1837.62 932.751 1837.62Z" fill="#D08C84"/>
<path d="M1012.8 1837.62C1009.21 1837.62 1005.61 1841.22 1005.61 1844.81C1005.61 1848.41 1009.21 1852.01 1012.8 1852.01C1016.4 1852.01 1020 1848.41 1020 1844.81C1020 1841.22 1016.4 1837.62 1012.8 1837.62Z" fill="#D08C84"/>
<path d="M611.64 1998.62C608.042 1998.62 604.444 2002.22 604.444 2005.82C604.444 2009.42 608.042 2013.02 611.64 2013.02C615.238 2013.02 618.835 2009.42 618.835 2005.82C618.835 2001.32 615.238 1998.62 611.64 1998.62Z" fill="#D08C84"/>
<path d="M691.692 1998.62C688.095 1998.62 684.497 2002.22 684.497 2005.82C684.497 2009.42 688.095 2013.02 691.692 2013.02C695.29 2013.02 698.888 2009.42 698.888 2005.82C698.888 2001.32 695.29 1998.62 691.692 1998.62Z" fill="#D08C84"/>
<path d="M771.746 1998.62C768.148 1998.62 764.55 2002.22 764.55 2005.82C764.55 2009.42 768.148 2013.02 771.746 2013.02C775.344 2013.02 778.942 2009.42 778.942 2005.82C778.942 2001.32 776.243 1998.62 771.746 1998.62Z" fill="#D08C84"/>
<path d="M851.799 1998.62C848.201 1998.62 844.603 2002.22 844.603 2005.82C844.603 2009.42 848.201 2013.02 851.799 2013.02C855.397 2013.02 858.995 2009.42 858.995 2005.82C858.995 2001.32 856.296 1998.62 851.799 1998.62Z" fill="#D08C84"/>
<path d="M932.751 1998.62C929.153 1998.62 925.555 2002.22 925.555 2005.82C925.555 2009.42 929.153 2013.02 932.751 2013.02C936.349 2013.02 939.947 2009.42 939.947 2005.82C939.047 2001.32 936.349 1998.62 932.751 1998.62Z" fill="#D08C84"/>
<path d="M1012.8 1998.62C1009.21 1998.62 1005.61 2002.22 1005.61 2005.82C1005.61 2009.42 1009.21 2013.02 1012.8 2013.02C1016.4 2013.02 1020 2009.42 1020 2005.82C1020 2001.32 1016.4 1998.62 1012.8 1998.62Z" fill="#D08C84"/>
</g>
<defs>
<clipPath id="clip0">
<rect width="1020" height="2095.77" fill="white"/>
</clipPath>
</defs>
</svg>
