<svg xmlns="http://www.w3.org/2000/svg" width="195" height="20" fill="none" xmlns:v="https://vecta.io/nano"><g clip-path="url(#A)" fill="#b2c9ff"><path d="M7.02 8.08c-2.42-.06-2.5-.09-3.42-1.2.62-.67 1.4-1.2 2.4-1.43l4.95-1.04c3.91-.52 7.84-.92 11.76-1.36l8.94-.98c.54-.06 1.09-.08 1.63-.12l7.64-.51c-.25-.1-.37-.18-.5-.18-1.91-.07-3.81-.23-5.72-.17-1.57.04-3.12.07-4.69-.01-2.31-.11-4.64.02-6.97.04L4.8 1.25c-1.36 0-2.73-.13-4.09-.23C.49 1 .29.82-.03.66.45.21.93.29 1.36.3c1.77.05 3.55.17 5.32.17L16.3.34 28.81.15 44.6.12l12.3.13c3.14 0 6.28.17 9.42-.2a8 8 0 0 1 1.83 0c2.85.31 5.72.36 8.59.37L98.47.7c6.21.21 12.43.23 18.64.36l10.04.25 20.7.41 15.97.53c4.02.19 8.03.56 12.05.83l7.57.41 5.93.3c.34.02.72.04.98.18.22.12.29.43.5.77-2.36.29-4.52 0-6.69-.13-2.1-.12-4.21-.19-6.33-.13.59.1 1.17.24 1.77.3l7.94.69c2.03.18 4.05.52 6.11.47.18 0 .43.08.54.19.16.16.33.4.29.57s-.32.35-.54.41c-.24.07-.54.04-.81.02l-7.75-.65-8.76-.69c-1.08-.1-2.14-.38-3.22-.46l-12.65-.93-12.26-.81-12.27-.56-13.92-.49-10.66-.21-14.76-.2-22.34-.26c-2.46-.04-4.91-.22-7.37-.28-1.57-.04-3.14-.01-4.71.04l-19.66.76-15.13.93-15.89 1.46c-1.35.13-2.66.49-3.98.77-.23.05-.55.11-.57.5l9.83-.18 17.59-.91c3.41-.16 6.83-.21 10.24-.32l4.3-.19c1.36-.02 2.73.06 4.09.04 1.98-.03 3.95-.12 5.92-.19.61-.02 1.25-.13 1.83-.04 3.06.46 6.14.3 9.2.18 2.27-.09 4.51.06 6.76.1l17.22.35 12.29.46 4.51.11c.95.03 1.9.12 2.86.15l11.87.43 12.68.57 7.16.26 10.42.66 4.9.34 7.52.6c1.09.08 2.18.06 3.27.15l10.8.89c1.43.11 2.87.09 4.3.15.47.02.97.05 1.4.2a.97.97 0 0 1 .54.63c.06.32-.27.48-.66.5a4.14 4.14 0 0 1-.61 0l-8.57-.61-5.31-.34-12.88-.71-10.83-.71-10.84-.53-12.69-.58-9.22-.33-15.97-.56-7.79-.21-20.69-.47c-2.46-.05-4.92.07-7.38.05-1.77-.01-3.54-.12-5.31-.18-.41-.01-.82-.03-1.23-.02-1.71.05-3.41.16-5.12.14-6.84-.07-13.66.3-20.48.64l-14.53.74c-3 .11-6.01.28-9.01-.08-1.06-.13-2.03.02-2.59.86v-.01zm178.76 8.82c1.09.43 1.5.96 1.48 1.72-.01.43-.44.74-.95.66l-3.81-.63c-3.92-.78-7.92-1.2-11.92-1.57l-7.52-.77-12.45-.89-8.57-.57-6.74-.37-7.15-.43-3.06-.19-9.6-.49-4.71-.16-10.64-.41-9.19-.53c-3.21-.14-6.42-.11-9.62-.32-5.18-.33-10.38-.17-15.55-.46-3.14-.18-6.28-.08-9.41-.22-2.18-.1-4.34-.36-6.51-.54-.4-.03-.83-.1-1.21-.03-2.44.45-4.9.15-7.35.15-4.1 0-8.19-.05-12.29-.16-3.54-.1-7.08-.41-10.62-.44-2.07-.02-4.05-.42-6.08-.55-.27-.02-.55-.02-.81-.09-.37-.1-.83-.15-.9-.57-.06-.32.36-.58 1.05-.58 1.23-.01 2.47-.07 3.69.04 5.51.49 11.04.61 16.57.67l17.82.19c.61 0 1.23.06 1.84.09 1.09.06 2.18.14 3.27.16l16.8.36 12.28.52 1.64.06c6.42.11 12.83.43 19.23.83 1.16.07 2.32.1 3.48.15l12.68.61 7.57.32 6.13.32 21.05 1.32c6.06.4 12.1.96 18.12 1.65 2.57.3 5.11.73 7.67 1.1.67.1 1.35.18 2.01.31.83.17 1.62.16 2.29-.28l-.01.02z"/></g><defs><clipPath id="A"><path fill="#fff" d="M0 0h194.5v19.29H0z"/></clipPath></defs></svg>