<svg width="256" height="256" viewBox="0 0 256 256" fill="none" xmlns="http://www.w3.org/2000/svg">
<g clip-path="url(#clip0)">
<g filter="url(#filter0_d)">
<path fill-rule="evenodd" clip-rule="evenodd" d="M160.489 39.1788C176.511 49.0069 181.045 69.0498 190.384 85.3667C199.142 100.67 214.509 113.97 213.366 131.572C212.223 149.156 196.67 161.539 184.599 174.376C173.364 186.323 161.242 196.708 146.131 203.071C128.793 210.371 110.584 216.541 92.0504 213.347C70.7101 209.67 43.8302 204.204 35.8466 184.068C27.6479 163.388 49.7602 143.497 55.8743 122.102C60.2154 106.91 59.3552 91.2147 66.4191 77.0825C75.2867 59.3419 83.1028 38.2466 101.493 30.8368C120.382 23.2257 143.135 28.533 160.489 39.1788Z" fill="#F8F5EF"/>
</g>
</g>
<defs>
<filter id="filter0_d" x="10.7284" y="5.93341" width="239.921" height="259.283" filterUnits="userSpaceOnUse" color-interpolation-filters="sRGB">
<feFlood flood-opacity="0" result="BackgroundImageFix"/>
<feColorMatrix in="SourceAlpha" type="matrix" values="0 0 0 0 0 0 0 0 0 0 0 0 0 0 0 0 0 0 127 0"/>
<feOffset dy="6"/>
<feGaussianBlur stdDeviation="5.5"/>
<feColorMatrix type="matrix" values="0 0 0 0 0.266667 0 0 0 0 0.239216 0 0 0 0 0.298039 0 0 0 0.12 0"/>
<feBlend mode="normal" in2="BackgroundImageFix" result="effect1_dropShadow"/>
<feBlend mode="normal" in="SourceGraphic" in2="effect1_dropShadow" result="shape"/>
</filter>
<clipPath id="clip0">
<rect width="256" height="256" fill="white"/>
</clipPath>
</defs>
</svg>
